<svg id="Buy_Desktop_BG" data-name="Buy Desktop BG" xmlns="http://www.w3.org/2000/svg" xmlns:xlink="http://www.w3.org/1999/xlink" width="2920" height="1152" viewBox="0 0 2920 1152">
  <defs>
    <linearGradient id="linear-gradient" x1="0.5" y1="1" x2="0.5" gradientUnits="objectBoundingBox">
      <stop offset="0" stop-color="#190a28"/>
      <stop offset="1" stop-color="#321450"/>
    </linearGradient>
    <clipPath id="clip-path">
      <path id="Path_22815" data-name="Path 22815" d="M865.866,246.381V1360.169h159.952L1390.724,246.381Z" fill="none"/>
    </clipPath>
    <linearGradient id="linear-gradient-2" x1="0.436" y1="0" x2="0.414" y2="1" xlink:href="#linear-gradient"/>
    <clipPath id="clip-path-2">
      <path id="Path_22799" data-name="Path 22799" d="M1548.789,2651.2h426.54V1499.807l-52.358-.222Z" transform="translate(-1548.789 -1499.585)" fill="none"/>
    </clipPath>
    <linearGradient id="linear-gradient-3" x1="0.82" y1="0.623" x2="0.011" y2="0.028" xlink:href="#linear-gradient"/>
    <linearGradient id="linear-gradient-4" x1="0.5" x2="0.5" y2="1" gradientUnits="objectBoundingBox">
      <stop offset="0" stop-color="#190a28" stop-opacity="0"/>
      <stop offset="1" stop-color="#190a28"/>
    </linearGradient>
    <linearGradient id="linear-gradient-6" y1="1" y2="0" xlink:href="#linear-gradient-4"/>
  </defs>
  <rect id="Rectangle_4877" data-name="Rectangle 4877" width="2920" height="1152" fill="url(#linear-gradient)"/>
  <path id="Path_22816" data-name="Path 22816" d="M-372,0V1151.614H189.516l0-.225-.425-3.741,1.943-3.263,1.933-2.62-.117-3.708,1.548-3.51,2.038-3.053.352-3.8,2.777-2.871.162-1.94-.913-3.44.614-3.445.667-3.857.509-3.083-.251-2.869,2.145-2.939.179-4.71,1.829-2.319.359-2.972,2-2.582.792-2.2,2.628-2.378,2.277-2.714,2.246-2.959,2.633-1.571,3.033-1.915.739-3.316-.051-3.327.916-3.1,1.6-2.8.41-3.354,3.433-1.909.772-2.354,2.964-2.006,1.1-3.49-.432-3.422-1.369-4.09-.523-3.972,1.479-3.731-1.78-2.912,1.905-2.683-1.9-4.7.939-2.983.352-2.944-.223-2.878-.251-3.918,1.487-3.741,3.39-2.023,1.583-3.463-.035-3.538,1.391-3.359,1.578-2.807-.271-3.161.42-2.577,2.226-2.9.258-2.54,1.077-2.413.915-2.936.931-2.345,2.43-1.672,1.5-2.827,1.819-2.732.5-3.543,1.432-3.273.787-3.615-.7-3.681-1.98-2.936,1.11-3.182,1.49-3.117,2.028-2.709.551-3.235,1.474-2.709,1.889-2.4L259,930.556l.49-3.647,1.809-3.255.834-3.256-.711-4.2.594-3.668,2.107-3.263-.676-3.721-.848-3.551-.177-3.251,2.636-1.6-.776-2.967,2.383-2.592.17-2.96.855-2.173,1.54-2.635,1.617-.764-.471-2.979,2.578-2.955.628-3.834.4-3.772-1.23-3.362,3.4-1.5-.392-3.382-1.078-2.954-1.4-2.927,1.419-2.944,1.45-2.841,1.227-2.947-.058-3.423,1.862-2.491.653-3.093,3.035-1.394,2.54-2.054.061-4.662-.1-4.345L285,820.946l-.3-.318-1.277-3.227.21-3.162.632-2.729.946-2.659,1.667-2.575.728-2.768,1.321-3.587,1.48-3.452,1.373-2.82-.868-3,.46-3.05-.1-3.076-2.142-2.823.549-3.157,1.265-3.549.126-3.8,2.234-3.121-.246-3.729,1.963-1.609,1-2.965.88-1.153,1.3-1.943,2.347-2.372,1.32-2.876,2.815-1.528-.27-3.375,1.139-2.934.141-2.957.456-3.7-1.925-2.236,1.3-3.063,4.217-1.224.731-3.982,1.108-3.6.954-3.554,2.062-3.261.164-4.2,3.921-1.273.84-2.623.306-3.2,1.875-2.821,1.867-1.4-.26-2.848,1.624-2.294-1.609-2.491-.074-3.162,2.014-2.471,2.132-1.839,1.068-2.916,1.609-2.391,3.605-2.9,3.172-2.659-.5-4.328.576-4.35,3.789-1.943,1.8-3.471,3.839.222-.933-3.488-.49-2.916.756-2.975-1.05-3.035,2.279-2.468,1.388-2.305.289-3.782.915-3.205-1.01-3.25,1.257-3.478-.46-3.311.073-3.528,2.2-2.4,2.064-2.575.063-3.488,1.141-2.962,1.783-2.907.261-3.83-1.207-3.807.655-3.764.536-1.9.805-3.394-.24-3.306-.294-3.311.372-2.764,1.917-2.236-.42-3.245,2.041-2.195-1.2-2.648.66-3.524-.728-3.347-.03-3.5,2.674-2.831.225-3.493.321-3.212-.5-3.122,2.3-4.356.341-3.182,2.535-1.971,1.793-2.587-1.029-3.23,1.7-3.081,2.112-2.9,3.118-.619.635-3.253,3.351-2.276.322-4.044,2.2-3.018,1.517-.624-1.249-2.464-.028-2.985,1.733-2.377,1.629-3.205-.824-3.605.63-3.316-.26-3.323-.539-3.384.174-3.364,2.034-4.128.529-2.127,1.67-2.645-.582-2.664-.655-3.617,1.72-3.278,2.043-3.242,2.033-3.036-.248-3.951,2.53-2.163,1.928-2.552,1.44-2.8,3.5-.934,1.376-2.881,3.025-1.321,1.247-3.609.347-3.5,2.663-2.406.637-3.025,1.176-2.975-1.009-3.271.526-1.4-.051-3.294,1.184-3.538-2.373-3.118.685-3.615,1.869-3.119-.212-3.819.782-1.856-.4-3.276.906-2.835,2.17-3.753-2.039-3.359.448-3.013.9-2.775.693-2.821.336-1.675-1.447-3.015,2.171-2.64,1.829-2.749,2.076-2.683-.112-3.495,1.187-3.592,3.974-.728,1.565-4.467,2.7-1.783,2.168-1.846.893-2.651,1.394-3.142,1.889-2.62.147-3.276,2.626-2.833.4-3.405-2.606-2.983,1.5-3.152.506-4.169-.478-4.054.322-2.7,1.3-2.181,1.823-3.538,1.882-3.629L449.131,306l2.65-3.334.437-.248,1.682-3.726,4.1-.327,1.87-2.909,2.473-2.282,2.286-3.5,2.689-3.075-.652-3.906,1.082-4.141-2.292-3.812.647-3.2,2.395-2.476-.114-3.336,1.813-2.55,3.387-2.226-1.057-4.078,1.694-1.976,1.007-3.581,1.05-3.695-.455-3.953,1.029-3.534-.671-5.071,1.8-3.422.708-3.22,1.06-3.116,1.7-2.8,1.581-2.888,1.993-2.59.152-3.592-.15-3.7.551-2.309.079-3.979.718-4.148-.25-3.418-.16-3.825.736-2.85-.718-2.742-.509-3.144,2.81-2.1-.4-4.5,3.423-2.648,2.264-3.824-.369-5,1.624-3.754,4.032-.886.45-4.188,3.377-1.892.074-4.078,2.067-3.4.891-2.8-.39-4.366,1.785-3.374.26-3.792.481-3.066.1-3.1.576-3.1-.129-3.433,2.57-2.631,2.17-2.646.539-3.662,2.114-2.711,1.708-3,2.659-2.29,1.755-2.972L524,99.671l2.077-3.3,1.829-2.861,3.165-2.375,2.079-3.8L532.93,82l3.007-3.136,1.237-3.281.881-3.857,3.5-1.852,1.295-3.159,2.517-2.193,1.513-3.728L549.7,58l.835-1.87,3.093-1.715.913-2.985,1.867-2.568-1.2-3.5,1.641-4.2,3.6-1.77.162-3.508-1.841-2.775,2.223-3.9.551-3.577.542-3.041,1.793-2.3.275-3.574,1.206-3.313,1.953-3.018.418-3.64L569.3,3.574,569.9,0Z" transform="translate(379.276)" fill="#190a28"/>
  <g id="Group_9037" data-name="Group 9037" transform="translate(-578.545 -246.381)">
    <g id="Group_9036" data-name="Group 9036" clip-path="url(#clip-path)">
      <path id="Path_22814" data-name="Path 22814" d="M536.626,902.089a.241.241,0,1,1-.241-.241.241.241,0,0,1,.241.241m-9.2-27.807a.241.241,0,1,0,.242.241.241.241,0,0,0-.242-.241m45.479,46.255a.16.16,0,1,0,.161.16.161.161,0,0,0-.161-.16m-8.956-27.968a.563.563,0,1,0,.562.563.563.563,0,0,0-.562-.563m-8.957-27.887a.884.884,0,1,0,.884.885.884.884,0,0,0-.884-.885m-8.957-27.565a.884.884,0,1,0,.884.884.884.884,0,0,0-.884-.884m-8.956-26.762a.081.081,0,1,0,.08.081.081.081,0,0,0-.08-.081m72.348,128.871a.081.081,0,1,0,.081.08.08.08,0,0,0-.081-.08m-8.956-27.887a.4.4,0,1,0,.4.4.4.4,0,0,0-.4-.4m-8.957-27.967a.8.8,0,1,0,.8.8.8.8,0,0,0-.8-.8M582.559,855.4a1.206,1.206,0,1,0,1.206,1.206,1.206,1.206,0,0,0-1.206-1.206M573.6,827.437a1.607,1.607,0,1,0,1.607,1.607,1.608,1.608,0,0,0-1.607-1.607m-8.957-27.646a1.688,1.688,0,1,0,1.688,1.688,1.688,1.688,0,0,0-1.688-1.688m-8.956-26.44a.563.563,0,1,0,.562.562.563.563,0,0,0-.562-.562m81.3,156.677a.322.322,0,1,0,.321.322.322.322,0,0,0-.321-.322m-8.957-27.967a.724.724,0,1,0,.723.723.723.723,0,0,0-.723-.723m-8.956-27.967a1.125,1.125,0,1,0,1.125,1.125,1.125,1.125,0,0,0-1.125-1.125m-8.957-27.887a1.447,1.447,0,1,0,1.447,1.446,1.446,1.446,0,0,0-1.447-1.446m-8.957-27.968a1.848,1.848,0,1,0,1.849,1.849,1.848,1.848,0,0,0-1.849-1.849m-8.956-27.967a2.251,2.251,0,1,0,2.25,2.25,2.251,2.251,0,0,0-2.25-2.25m-8.957-27.887a2.572,2.572,0,1,0,2.572,2.572,2.572,2.572,0,0,0-2.572-2.572m-8.956-26.44a1.447,1.447,0,1,0,1.446,1.446,1.446,1.446,0,0,0-1.446-1.446m99.218,212.773a.241.241,0,1,0,.241.241.241.241,0,0,0-.241-.241m-8.957-27.887a.563.563,0,1,0,.563.562.562.562,0,0,0-.563-.562M655.6,892.863a.965.965,0,1,0,.964.965.965.965,0,0,0-.964-.965M646.647,864.9a1.367,1.367,0,1,0,1.366,1.366,1.366,1.366,0,0,0-1.366-1.366m-8.957-27.967a1.768,1.768,0,1,0,1.769,1.768,1.768,1.768,0,0,0-1.769-1.768m-8.956-27.968a2.17,2.17,0,1,0,2.17,2.17,2.17,2.17,0,0,0-2.17-2.17m-8.957-27.887a2.492,2.492,0,1,0,2.492,2.492,2.492,2.492,0,0,0-2.492-2.492m-8.956-27.967A2.893,2.893,0,1,0,613.714,756a2.894,2.894,0,0,0-2.893-2.893m-8.957-27.967a3.295,3.295,0,1,0,3.295,3.295,3.295,3.295,0,0,0-3.295-3.295m-8.956-27a2.732,2.732,0,1,0,2.732,2.732,2.732,2.732,0,0,0-2.732-2.732m-8.957-25.315a.482.482,0,1,0,.482.482.482.482,0,0,0-.482-.482M710.039,967.487a.081.081,0,1,0,.08.081.081.081,0,0,0-.08-.081m-8.957-27.967a.482.482,0,1,0,.482.482.482.482,0,0,0-.482-.482m-8.956-27.967a.884.884,0,1,0,.884.884.883.883,0,0,0-.884-.884m-8.957-27.968a1.286,1.286,0,1,0,1.286,1.286,1.286,1.286,0,0,0-1.286-1.286M674.213,855.7a1.608,1.608,0,1,0,1.607,1.608,1.608,1.608,0,0,0-1.607-1.608m-8.957-27.967a2.009,2.009,0,1,0,2.009,2.009,2.008,2.008,0,0,0-2.009-2.009M656.3,799.764a2.411,2.411,0,1,0,2.411,2.411,2.411,2.411,0,0,0-2.411-2.411M647.343,771.8a2.813,2.813,0,1,0,2.813,2.813,2.813,2.813,0,0,0-2.813-2.813m-8.957-27.887a3.134,3.134,0,1,0,3.135,3.135,3.135,3.135,0,0,0-3.135-3.135m-8.956-27.967a3.536,3.536,0,1,0,3.536,3.536,3.536,3.536,0,0,0-3.536-3.536m-8.957-27.967a3.938,3.938,0,1,0,3.938,3.938,3.938,3.938,0,0,0-3.938-3.938m-8.957-27.566a3.939,3.939,0,1,0,3.939,3.938,3.938,3.938,0,0,0-3.939-3.938m-8.956-25.074a1.447,1.447,0,1,0,1.447,1.447,1.447,1.447,0,0,0-1.447-1.447m144,350.761a.081.081,0,1,0,.08.081.08.08,0,0,0-.08-.081M737.6,958.209a.4.4,0,1,0,.4.4.4.4,0,0,0-.4-.4m-8.956-27.967a.8.8,0,1,0,.8.8.8.8,0,0,0-.8-.8m-8.957-27.887a1.125,1.125,0,1,0,1.125,1.125,1.125,1.125,0,0,0-1.125-1.125m-8.956-27.967a1.527,1.527,0,1,0,1.527,1.527,1.526,1.526,0,0,0-1.527-1.527m-8.957-27.968a1.929,1.929,0,1,0,1.929,1.929,1.929,1.929,0,0,0-1.929-1.929m-8.957-27.967a2.331,2.331,0,1,0,2.331,2.331,2.33,2.33,0,0,0-2.331-2.331m-8.956-27.968a2.733,2.733,0,1,0,2.732,2.733,2.734,2.734,0,0,0-2.732-2.733M674.908,762.6a3.054,3.054,0,1,0,3.054,3.055,3.054,3.054,0,0,0-3.054-3.055m-8.956-27.967a3.456,3.456,0,1,0,3.456,3.456,3.456,3.456,0,0,0-3.456-3.456m-8.957-27.887a3.777,3.777,0,1,0,3.778,3.778,3.777,3.777,0,0,0-3.778-3.778m-8.957-27.967a4.179,4.179,0,1,0,4.18,4.179,4.179,4.179,0,0,0-4.18-4.179m-8.956-27.967a4.581,4.581,0,1,0,4.581,4.581,4.581,4.581,0,0,0-4.581-4.581M630.125,623a4.823,4.823,0,1,0,4.823,4.822A4.822,4.822,0,0,0,630.125,623m-8.956-25.8a3.054,3.054,0,1,0,3.054,3.054,3.054,3.054,0,0,0-3.054-3.054m-8.957-24.753a.241.241,0,1,0,.241.241.241.241,0,0,0-.241-.241M774.126,976.979a.241.241,0,1,0,.241.241.241.241,0,0,0-.241-.241m-8.956-27.967a.642.642,0,1,0,.643.642.642.642,0,0,0-.643-.642m-8.957-27.968a1.045,1.045,0,1,0,1.045,1.045,1.045,1.045,0,0,0-1.045-1.045m-8.956-27.967a1.446,1.446,0,1,0,1.446,1.447,1.447,1.447,0,0,0-1.446-1.447M738.3,865.109a1.849,1.849,0,1,0,1.849,1.849,1.849,1.849,0,0,0-1.849-1.849m-8.957-27.886a2.17,2.17,0,1,0,2.17,2.17,2.17,2.17,0,0,0-2.17-2.17m-8.956-27.968a2.572,2.572,0,1,0,2.572,2.572,2.572,2.572,0,0,0-2.572-2.572m-8.957-27.967a2.973,2.973,0,1,0,2.974,2.974,2.973,2.973,0,0,0-2.974-2.974m-8.956-27.968a3.376,3.376,0,1,0,3.375,3.376,3.376,3.376,0,0,0-3.375-3.376m-8.957-27.887a3.7,3.7,0,1,0,3.7,3.7,3.7,3.7,0,0,0-3.7-3.7m-8.956-27.967a4.1,4.1,0,1,0,4.1,4.1,4.1,4.1,0,0,0-4.1-4.1M675.6,669.579a4.421,4.421,0,1,0,4.42,4.421,4.42,4.42,0,0,0-4.42-4.421m-8.957-27.967a4.822,4.822,0,1,0,4.823,4.822,4.822,4.822,0,0,0-4.823-4.822m-8.956-27.887a5.144,5.144,0,1,0,5.144,5.144,5.144,5.144,0,0,0-5.144-5.144m-8.957-27.968a5.546,5.546,0,1,0,5.546,5.546,5.545,5.545,0,0,0-5.546-5.546M639.778,559a4.742,4.742,0,1,0,4.742,4.742A4.742,4.742,0,0,0,639.778,559m-8.957-23.949a1.125,1.125,0,1,0,1.125,1.125,1.125,1.125,0,0,0-1.125-1.125M810.648,995.668a.161.161,0,1,0,.161.161.161.161,0,0,0-.161-.161M801.692,967.7a.563.563,0,1,0,.562.562.563.563,0,0,0-.562-.562m-8.957-27.968a.965.965,0,1,0,.965.965.965.965,0,0,0-.965-.965m-8.956-27.887a1.286,1.286,0,1,0,1.286,1.286,1.286,1.286,0,0,0-1.286-1.286m-8.957-27.967a1.688,1.688,0,1,0,1.688,1.688,1.688,1.688,0,0,0-1.688-1.688m-8.956-27.967A2.09,2.09,0,1,0,767.955,858a2.089,2.089,0,0,0-2.089-2.089m-8.957-27.968a2.492,2.492,0,1,0,2.491,2.492,2.492,2.492,0,0,0-2.491-2.492m-8.957-27.967a2.893,2.893,0,1,0,2.894,2.893,2.893,2.893,0,0,0-2.894-2.893M739,772.09a3.215,3.215,0,1,0,3.215,3.215A3.214,3.214,0,0,0,739,772.09m-8.957-27.967a3.617,3.617,0,1,0,3.617,3.616,3.617,3.617,0,0,0-3.617-3.616m-8.956-27.968a4.019,4.019,0,1,0,4.018,4.019,4.019,4.019,0,0,0-4.018-4.019m-8.957-27.887a4.34,4.34,0,1,0,4.34,4.341,4.341,4.341,0,0,0-4.34-4.341M703.169,660.3a4.742,4.742,0,1,0,4.742,4.742,4.742,4.742,0,0,0-4.742-4.742m-8.956-27.887a5.064,5.064,0,1,0,5.063,5.064,5.064,5.064,0,0,0-5.063-5.064m-8.957-27.967a5.465,5.465,0,1,0,5.466,5.465,5.465,5.465,0,0,0-5.466-5.465M676.3,576.56a5.786,5.786,0,1,0,5.786,5.787,5.787,5.787,0,0,0-5.786-5.787m-8.957-27.968a6.189,6.189,0,1,0,6.189,6.189,6.188,6.188,0,0,0-6.189-6.189m-8.956-27.485a6.108,6.108,0,1,0,6.108,6.109,6.109,6.109,0,0,0-6.108-6.109m-8.957-24.27a2.813,2.813,0,1,0,2.813,2.813,2.813,2.813,0,0,0-2.813-2.813M640.473,472a.081.081,0,1,0,.081.081.08.08,0,0,0-.081-.081m206.7,542.353a.081.081,0,1,0,.08.081.081.081,0,0,0-.08-.081m-8.957-27.967a.482.482,0,1,0,.482.482.482.482,0,0,0-.482-.482M829.257,958.5a.8.8,0,1,0,.8.8.8.8,0,0,0-.8-.8M820.3,930.536a1.206,1.206,0,1,0,1.2,1.205,1.205,1.205,0,0,0-1.2-1.205m-8.957-27.968a1.608,1.608,0,1,0,1.608,1.608,1.607,1.607,0,0,0-1.608-1.608M802.388,874.6a2.009,2.009,0,1,0,2.009,2.009,2.01,2.01,0,0,0-2.009-2.009m-8.957-27.967a2.411,2.411,0,1,0,2.411,2.411,2.41,2.41,0,0,0-2.411-2.411m-8.957-27.887a2.732,2.732,0,1,0,2.733,2.732,2.732,2.732,0,0,0-2.733-2.732m-8.956-27.968a3.134,3.134,0,1,0,3.134,3.135,3.136,3.136,0,0,0-3.134-3.135m-8.957-27.967a3.536,3.536,0,1,0,3.537,3.536,3.536,3.536,0,0,0-3.537-3.536M757.6,734.925a3.858,3.858,0,1,0,3.858,3.858,3.858,3.858,0,0,0-3.858-3.858m-8.957-27.967a4.259,4.259,0,1,0,4.26,4.259,4.26,4.26,0,0,0-4.26-4.259m-8.956-27.887a4.581,4.581,0,1,0,4.581,4.581,4.581,4.581,0,0,0-4.581-4.581M730.735,651.1a4.983,4.983,0,1,0,4.983,4.983,4.983,4.983,0,0,0-4.983-4.983m-8.957-27.967a5.385,5.385,0,1,0,5.385,5.385,5.385,5.385,0,0,0-5.385-5.385m-8.956-27.887a5.706,5.706,0,1,0,5.706,5.706,5.707,5.707,0,0,0-5.706-5.706m-8.957-27.887a6.028,6.028,0,1,0,6.028,6.028,6.028,6.028,0,0,0-6.028-6.028M694.909,539.4a6.43,6.43,0,1,0,6.429,6.429,6.429,6.429,0,0,0-6.429-6.429m-8.957-27.968a6.832,6.832,0,1,0,6.832,6.832,6.832,6.832,0,0,0-6.832-6.832m-8.957-27.806a7.072,7.072,0,1,0,7.073,7.072,7.072,7.072,0,0,0-7.073-7.072m-8.956-25.476a4.983,4.983,0,1,0,4.983,4.983,4.983,4.983,0,0,0-4.983-4.983M659.082,435a.563.563,0,1,0,.563.562.562.562,0,0,0-.563-.562m215.654,570.16a.322.322,0,1,0,.321.321.322.322,0,0,0-.321-.321m-8.957-27.968a.723.723,0,1,0,.724.724.724.724,0,0,0-.724-.724m-8.956-27.967a1.125,1.125,0,1,0,1.125,1.125,1.125,1.125,0,0,0-1.125-1.125m-8.957-27.967a1.527,1.527,0,1,0,1.527,1.527,1.527,1.527,0,0,0-1.527-1.527M838.91,893.29a1.929,1.929,0,1,0,1.929,1.929,1.929,1.929,0,0,0-1.929-1.929M829.953,865.4a2.25,2.25,0,1,0,2.25,2.251,2.25,2.25,0,0,0-2.25-2.251M821,837.436a2.653,2.653,0,1,0,2.652,2.652A2.653,2.653,0,0,0,821,837.436m-8.957-27.967a3.054,3.054,0,1,0,3.054,3.054,3.054,3.054,0,0,0-3.054-3.054m-8.957-27.887a3.376,3.376,0,1,0,3.376,3.375,3.375,3.375,0,0,0-3.376-3.375m-8.956-27.968a3.777,3.777,0,1,0,3.777,3.778,3.779,3.779,0,0,0-3.777-3.778m-8.957-27.967a4.18,4.18,0,1,0,4.18,4.179,4.179,4.179,0,0,0-4.18-4.179m-8.956-27.887a4.5,4.5,0,1,0,4.5,4.5,4.5,4.5,0,0,0-4.5-4.5m-8.957-27.967a4.9,4.9,0,1,0,4.9,4.9,4.9,4.9,0,0,0-4.9-4.9M758.3,641.906a5.224,5.224,0,1,0,5.225,5.224,5.224,5.224,0,0,0-5.225-5.224m-8.956-27.968a5.626,5.626,0,1,0,5.626,5.626,5.626,5.626,0,0,0-5.626-5.626m-8.957-27.887A5.947,5.947,0,1,0,746.335,592a5.948,5.948,0,0,0-5.948-5.948m-8.956-27.967a6.35,6.35,0,1,0,6.349,6.349,6.35,6.35,0,0,0-6.349-6.349M722.474,530.2a6.671,6.671,0,1,0,6.671,6.671,6.671,6.671,0,0,0-6.671-6.671m-8.957-27.967a7.072,7.072,0,1,0,7.073,7.072,7.072,7.072,0,0,0-7.073-7.072m-8.956-27.887a7.394,7.394,0,1,0,7.394,7.394,7.393,7.393,0,0,0-7.394-7.394M695.6,446.456a7.715,7.715,0,1,0,7.716,7.715,7.715,7.715,0,0,0-7.716-7.715m-8.956-26.842a6.992,6.992,0,1,0,6.992,6.992,6.992,6.992,0,0,0-6.992-6.992m-8.957-22.744a2.171,2.171,0,1,0,2.17,2.171,2.171,2.171,0,0,0-2.17-2.171m233.567,626.979a.241.241,0,1,0,.241.241.241.241,0,0,0-.241-.241M902.3,995.882a.643.643,0,1,0,.643.643.642.642,0,0,0-.643-.643m-8.956-27.968a1.045,1.045,0,1,0,1.045,1.045,1.045,1.045,0,0,0-1.045-1.045m-8.957-27.887a1.367,1.367,0,1,0,1.367,1.367,1.367,1.367,0,0,0-1.367-1.367m-8.956-27.967a1.768,1.768,0,1,0,1.768,1.768,1.768,1.768,0,0,0-1.768-1.768m-8.957-27.967a2.17,2.17,0,1,0,2.17,2.17,2.17,2.17,0,0,0-2.17-2.17m-8.956-27.968a2.572,2.572,0,1,0,2.571,2.572,2.572,2.572,0,0,0-2.571-2.572m-8.957-27.967a2.973,2.973,0,1,0,2.974,2.974,2.974,2.974,0,0,0-2.974-2.974M839.6,800.271a3.3,3.3,0,1,0,3.3,3.295,3.3,3.3,0,0,0-3.3-3.295M830.649,772.3a3.7,3.7,0,1,0,3.7,3.7,3.7,3.7,0,0,0-3.7-3.7m-8.957-27.887a4.018,4.018,0,1,0,4.019,4.018,4.018,4.018,0,0,0-4.019-4.018m-8.956-27.968a4.421,4.421,0,1,0,4.42,4.421,4.421,4.421,0,0,0-4.42-4.421m-8.957-27.967A4.823,4.823,0,1,0,808.6,693.3a4.822,4.822,0,0,0-4.822-4.822m-8.957-27.887a5.144,5.144,0,1,0,5.144,5.144,5.144,5.144,0,0,0-5.144-5.144m-8.956-27.967a5.546,5.546,0,1,0,5.546,5.545,5.545,5.545,0,0,0-5.546-5.545m-8.957-27.887a5.867,5.867,0,1,0,5.867,5.867,5.867,5.867,0,0,0-5.867-5.867m-8.956-27.968a6.269,6.269,0,1,0,6.269,6.269,6.269,6.269,0,0,0-6.269-6.269M759,548.886a6.591,6.591,0,1,0,6.591,6.591A6.59,6.59,0,0,0,759,548.886M750.04,521a6.912,6.912,0,1,0,6.912,6.912A6.912,6.912,0,0,0,750.04,521m-8.957-27.967a7.314,7.314,0,1,0,7.314,7.314,7.315,7.315,0,0,0-7.314-7.314m-8.957-27.887a7.635,7.635,0,1,0,7.636,7.635,7.635,7.635,0,0,0-7.636-7.635m-8.956-27.887a7.957,7.957,0,1,0,7.957,7.957,7.956,7.956,0,0,0-7.957-7.957m-8.957-27.967a8.359,8.359,0,1,0,8.359,8.358,8.358,8.358,0,0,0-8.359-8.358m-8.956-27.646a8.439,8.439,0,1,0,8.439,8.439,8.439,8.439,0,0,0-8.439-8.439M696.3,358.1a4.421,4.421,0,1,0,4.421,4.42,4.42,4.42,0,0,0-4.421-4.42m-8.956-23.306a.161.161,0,1,0,.16.161.161.161,0,0,0-.16-.161M947.78,1042.538a.161.161,0,1,0,.161.161.161.161,0,0,0-.161-.161m-8.956-27.887a.483.483,0,1,0,.482.483.483.483,0,0,0-.482-.483m-8.957-27.967a.884.884,0,1,0,.884.884.884.884,0,0,0-.884-.884m-8.957-27.967A1.286,1.286,0,1,0,922.2,960a1.286,1.286,0,0,0-1.286-1.286m-8.956-27.968a1.688,1.688,0,1,0,1.688,1.688,1.688,1.688,0,0,0-1.688-1.688M903,902.782a2.09,2.09,0,1,0,2.09,2.09,2.09,2.09,0,0,0-2.09-2.09m-8.956-27.967a2.491,2.491,0,1,0,2.491,2.491,2.492,2.492,0,0,0-2.491-2.491m-8.957-27.887a2.813,2.813,0,1,0,2.813,2.813,2.813,2.813,0,0,0-2.813-2.813m-8.957-27.968a3.215,3.215,0,1,0,3.215,3.215,3.215,3.215,0,0,0-3.215-3.215m-8.956-27.887a3.536,3.536,0,1,0,3.536,3.537,3.537,3.537,0,0,0-3.536-3.537m-8.957-27.967a3.938,3.938,0,1,0,3.939,3.938,3.938,3.938,0,0,0-3.939-3.938m-8.956-27.967a4.34,4.34,0,1,0,4.34,4.34,4.34,4.34,0,0,0-4.34-4.34M840.3,707.252a4.661,4.661,0,1,0,4.662,4.661,4.661,4.661,0,0,0-4.662-4.661m-8.956-27.968a5.064,5.064,0,1,0,5.063,5.064,5.064,5.064,0,0,0-5.063-5.064M822.388,651.4a5.385,5.385,0,1,0,5.385,5.385,5.385,5.385,0,0,0-5.385-5.385m-8.957-27.967a5.787,5.787,0,1,0,5.787,5.787,5.786,5.786,0,0,0-5.787-5.787m-8.956-27.887a6.108,6.108,0,1,0,6.108,6.108,6.108,6.108,0,0,0-6.108-6.108m-8.957-27.967a6.51,6.51,0,1,0,6.51,6.51,6.51,6.51,0,0,0-6.51-6.51m-8.956-27.887a6.831,6.831,0,1,0,6.831,6.831,6.831,6.831,0,0,0-6.831-6.831M777.6,511.721a7.233,7.233,0,1,0,7.234,7.234,7.233,7.233,0,0,0-7.234-7.234m-8.957-27.887a7.555,7.555,0,1,0,7.555,7.555,7.555,7.555,0,0,0-7.555-7.555m-8.956-27.887a7.877,7.877,0,1,0,7.876,7.877,7.877,7.877,0,0,0-7.876-7.877m-8.957-27.967a8.278,8.278,0,1,0,8.279,8.278,8.278,8.278,0,0,0-8.279-8.278m-8.956-27.887a8.6,8.6,0,1,0,8.6,8.6,8.6,8.6,0,0,0-8.6-8.6m-8.957-27.887a8.922,8.922,0,1,0,8.921,8.921,8.921,8.921,0,0,0-8.921-8.921m-8.956-27.887a9.243,9.243,0,1,0,9.242,9.243,9.243,9.243,0,0,0-9.242-9.243m-8.957-25.476A7.153,7.153,0,1,0,722.062,326a7.153,7.153,0,0,0-7.153-7.153m-8.957-21.618a1.205,1.205,0,1,0,1.206,1.206,1.206,1.206,0,0,0-1.206-1.206m278.35,764a.08.08,0,1,0,.081.08.08.08,0,0,0-.081-.08m-8.956-27.887a.4.4,0,1,0,.4.4.4.4,0,0,0-.4-.4m-8.957-27.968a.8.8,0,1,0,.8.8.8.8,0,0,0-.8-.8m-8.957-27.967a1.206,1.206,0,1,0,1.206,1.205,1.206,1.206,0,0,0-1.206-1.205m-8.956-27.967a1.607,1.607,0,1,0,1.607,1.607,1.607,1.607,0,0,0-1.607-1.607m-8.957-27.887a1.928,1.928,0,1,0,1.929,1.928,1.929,1.929,0,0,0-1.929-1.928m-8.956-27.968a2.331,2.331,0,1,0,2.33,2.331,2.331,2.331,0,0,0-2.33-2.331m-8.957-27.967a2.732,2.732,0,1,0,2.733,2.732,2.733,2.733,0,0,0-2.733-2.732M912.65,837.65a3.134,3.134,0,1,0,3.134,3.134,3.134,3.134,0,0,0-3.134-3.134m-8.957-27.887a3.456,3.456,0,1,0,3.456,3.455,3.455,3.455,0,0,0-3.456-3.455m-8.957-27.968a3.858,3.858,0,1,0,3.858,3.858,3.857,3.857,0,0,0-3.858-3.858m-8.956-27.887a4.18,4.18,0,1,0,4.179,4.18,4.18,4.18,0,0,0-4.179-4.18m-8.957-27.967a4.581,4.581,0,1,0,4.581,4.581,4.581,4.581,0,0,0-4.581-4.581m-8.956-27.968a4.983,4.983,0,1,0,4.983,4.984,4.984,4.984,0,0,0-4.983-4.984m-8.957-27.886a5.3,5.3,0,1,0,5.305,5.3,5.3,5.3,0,0,0-5.305-5.3M849.953,642.2a5.626,5.626,0,1,0,5.627,5.626,5.626,5.626,0,0,0-5.627-5.626M841,614.232a6.028,6.028,0,1,0,6.028,6.028A6.028,6.028,0,0,0,841,614.232m-8.957-27.967a6.43,6.43,0,1,0,6.43,6.43,6.429,6.429,0,0,0-6.43-6.43m-8.956-27.887a6.751,6.751,0,1,0,6.751,6.751,6.751,6.751,0,0,0-6.751-6.751m-8.957-27.887a7.072,7.072,0,1,0,7.073,7.073,7.073,7.073,0,0,0-7.073-7.073m-8.956-27.967A7.475,7.475,0,1,0,812.645,510a7.474,7.474,0,0,0-7.474-7.474m-8.957-27.887a7.8,7.8,0,1,0,7.8,7.8,7.8,7.8,0,0,0-7.8-7.8m-8.957-27.887a8.117,8.117,0,1,0,8.118,8.117,8.117,8.117,0,0,0-8.118-8.117M778.3,418.863a8.439,8.439,0,1,0,8.439,8.439,8.439,8.439,0,0,0-8.439-8.439m-8.957-27.968a8.841,8.841,0,1,0,8.841,8.841,8.842,8.842,0,0,0-8.841-8.841m-8.956-27.887a9.163,9.163,0,1,0,9.162,9.163,9.162,9.162,0,0,0-9.162-9.163m-8.957-27.887a9.484,9.484,0,1,0,9.484,9.484,9.484,9.484,0,0,0-9.484-9.484m-8.956-27.887a9.805,9.805,0,1,0,9.805,9.806,9.806,9.806,0,0,0-9.805-9.806m-8.957-27.163a9.4,9.4,0,1,0,9.4,9.4,9.4,9.4,0,0,0-9.4-9.4m-8.957-21.457a3.295,3.295,0,1,0,3.3,3.295,3.295,3.295,0,0,0-3.3-3.295m287.307,793.416a.321.321,0,1,0,.321.321.321.321,0,0,0-.321-.321m-8.957-27.968a.724.724,0,1,0,.723.724.724.724,0,0,0-.723-.724m-8.956-27.886A1.044,1.044,0,1,0,995,997.22a1.044,1.044,0,0,0-1.044-1.044M985,968.208a1.447,1.447,0,1,0,1.447,1.447A1.447,1.447,0,0,0,985,968.208m-8.957-27.967a1.848,1.848,0,1,0,1.849,1.848,1.848,1.848,0,0,0-1.849-1.848m-8.956-27.968a2.25,2.25,0,1,0,2.25,2.251,2.251,2.251,0,0,0-2.25-2.251m-8.957-27.967a2.652,2.652,0,1,0,2.652,2.652,2.652,2.652,0,0,0-2.652-2.652m-8.956-27.887a2.974,2.974,0,1,0,2.973,2.974,2.974,2.974,0,0,0-2.973-2.974m-8.957-27.967a3.375,3.375,0,1,0,3.376,3.375,3.376,3.376,0,0,0-3.376-3.375m-8.957-27.968a3.777,3.777,0,1,0,3.778,3.778,3.778,3.778,0,0,0-3.778-3.778M922.3,772.6a4.1,4.1,0,1,0,4.1,4.1,4.1,4.1,0,0,0-4.1-4.1m-8.957-27.968a4.5,4.5,0,1,0,4.5,4.5,4.5,4.5,0,0,0-4.5-4.5m-8.956-27.887a4.823,4.823,0,1,0,4.822,4.823,4.823,4.823,0,0,0-4.822-4.823m-8.957-27.967A5.224,5.224,0,1,0,900.656,694a5.224,5.224,0,0,0-5.224-5.224m-8.956-27.887a5.546,5.546,0,1,0,5.545,5.546,5.546,5.546,0,0,0-5.545-5.546m-8.957-27.968a5.948,5.948,0,1,0,5.947,5.948,5.948,5.948,0,0,0-5.947-5.948m-8.957-27.886a6.269,6.269,0,1,0,6.269,6.269,6.269,6.269,0,0,0-6.269-6.269m-8.956-27.968a6.671,6.671,0,1,0,6.671,6.671,6.671,6.671,0,0,0-6.671-6.671m-8.957-27.887a6.992,6.992,0,1,0,6.993,6.993,6.992,6.992,0,0,0-6.993-6.993m-8.956-27.887a7.314,7.314,0,1,0,7.314,7.314,7.314,7.314,0,0,0-7.314-7.314m-8.957-27.967a7.715,7.715,0,1,0,7.716,7.716,7.716,7.716,0,0,0-7.716-7.716m-8.957-27.887a8.037,8.037,0,1,0,8.038,8.037,8.037,8.037,0,0,0-8.038-8.037m-8.956-27.887a8.359,8.359,0,1,0,8.359,8.359,8.359,8.359,0,0,0-8.359-8.359m-8.957-27.967a8.76,8.76,0,1,0,8.761,8.76,8.76,8.76,0,0,0-8.761-8.76M796.91,381.7a9.082,9.082,0,1,0,9.082,9.082,9.082,9.082,0,0,0-9.082-9.082m-8.957-27.887a9.4,9.4,0,1,0,9.4,9.4,9.4,9.4,0,0,0-9.4-9.4M779,325.924a9.725,9.725,0,1,0,9.725,9.725A9.725,9.725,0,0,0,779,325.924m-8.957-27.887a10.047,10.047,0,1,0,10.046,10.046,10.046,10.046,0,0,0-10.046-10.046m-8.957-27.887a10.368,10.368,0,1,0,10.368,10.368,10.368,10.368,0,0,0-10.368-10.368m-8.956-27.887a10.689,10.689,0,1,0,10.689,10.689,10.69,10.69,0,0,0-10.689-10.689m-8.957-23.386a6.51,6.51,0,1,0,6.51,6.51,6.51,6.51,0,0,0-6.51-6.51m-8.956-21.538a.482.482,0,1,0,.482.482.482.482,0,0,0-.482-.482m314.176,873.38a.241.241,0,1,0,.241.241.241.241,0,0,0-.241-.241m-8.957-27.887a.563.563,0,1,0,.563.563.562.562,0,0,0-.563-.563m-8.956-27.967a.965.965,0,1,0,.964.964.965.965,0,0,0-.964-.964M1021.52,986.9a1.367,1.367,0,1,0,1.366,1.367,1.366,1.366,0,0,0-1.366-1.367m-8.957-27.967a1.768,1.768,0,1,0,1.769,1.768,1.769,1.769,0,0,0-1.769-1.768m-8.956-27.967a2.17,2.17,0,1,0,2.17,2.17,2.169,2.169,0,0,0-2.17-2.17m-8.957-27.887a2.492,2.492,0,1,0,2.492,2.491,2.491,2.491,0,0,0-2.492-2.491m-8.956-27.968A2.894,2.894,0,1,0,988.587,878a2.894,2.894,0,0,0-2.893-2.894m-8.957-27.967a3.3,3.3,0,1,0,3.295,3.295,3.295,3.295,0,0,0-3.295-3.295m-8.957-27.887a3.617,3.617,0,1,0,3.617,3.617,3.616,3.616,0,0,0-3.617-3.617m-8.956-27.967a4.018,4.018,0,1,0,4.019,4.018,4.019,4.019,0,0,0-4.019-4.018m-8.957-27.968a4.421,4.421,0,1,0,4.421,4.421,4.421,4.421,0,0,0-4.421-4.421m-8.956-27.887a4.742,4.742,0,1,0,4.742,4.742,4.743,4.743,0,0,0-4.742-4.742m-8.957-27.967a5.144,5.144,0,1,0,5.144,5.144,5.144,5.144,0,0,0-5.144-5.144M923,679.578a5.465,5.465,0,1,0,5.465,5.465A5.466,5.466,0,0,0,923,679.578m-8.957-27.967a5.867,5.867,0,1,0,5.867,5.867,5.867,5.867,0,0,0-5.867-5.867m-8.957-27.887a6.189,6.189,0,1,0,6.189,6.188,6.189,6.189,0,0,0-6.189-6.188m-8.956-27.968a6.591,6.591,0,1,0,6.59,6.591,6.591,6.591,0,0,0-6.59-6.591m-8.957-27.887a6.912,6.912,0,1,0,6.912,6.912,6.913,6.913,0,0,0-6.912-6.912m-8.956-27.886a7.233,7.233,0,1,0,7.233,7.233,7.233,7.233,0,0,0-7.233-7.233m-8.957-27.968a7.635,7.635,0,1,0,7.635,7.636,7.635,7.635,0,0,0-7.635-7.636M860.3,484.128a7.957,7.957,0,1,0,7.956,7.957,7.957,7.957,0,0,0-7.956-7.957m-8.957-27.887a8.279,8.279,0,1,0,8.278,8.279,8.278,8.278,0,0,0-8.278-8.279m-8.957-27.887a8.6,8.6,0,1,0,8.6,8.6,8.6,8.6,0,0,0-8.6-8.6m-8.956-27.967a9,9,0,1,0,9,9,9,9,0,0,0-9-9M824.475,372.5a9.323,9.323,0,1,0,9.323,9.323,9.323,9.323,0,0,0-9.323-9.323m-8.956-27.887a9.645,9.645,0,1,0,9.644,9.645,9.645,9.645,0,0,0-9.644-9.645m-8.957-27.887a9.966,9.966,0,1,0,9.966,9.966,9.966,9.966,0,0,0-9.966-9.966m-8.956-27.887a10.288,10.288,0,1,0,10.287,10.288,10.288,10.288,0,0,0-10.287-10.288m-8.957-27.967a10.689,10.689,0,1,0,10.689,10.689,10.689,10.689,0,0,0-10.689-10.689m-8.957-27.807A10.93,10.93,0,1,0,790.623,244a10.93,10.93,0,0,0-10.931-10.931m-8.956-27.887a11.252,11.252,0,1,0,11.252,11.252,11.252,11.252,0,0,0-11.252-11.252M761.779,179.3a9.564,9.564,0,1,0,9.564,9.565,9.565,9.565,0,0,0-9.564-9.565m-8.956-20.171a2.17,2.17,0,1,0,2.17,2.17,2.17,2.17,0,0,0-2.17-2.17m332.089,930.36a.081.081,0,1,0,.08.08.08.08,0,0,0-.08-.08m-8.957-27.968a.482.482,0,1,0,.482.483.482.482,0,0,0-.482-.483M1067,1033.554a.884.884,0,1,0,.884.884.884.884,0,0,0-.884-.884m-8.957-27.967a1.286,1.286,0,1,0,1.286,1.286,1.286,1.286,0,0,0-1.286-1.286m-8.957-27.887a1.607,1.607,0,1,0,1.608,1.607,1.607,1.607,0,0,0-1.608-1.607m-8.956-27.968a2.009,2.009,0,1,0,2.009,2.01,2.009,2.009,0,0,0-2.009-2.01m-8.957-27.967a2.411,2.411,0,1,0,2.411,2.411,2.412,2.412,0,0,0-2.411-2.411m-8.956-27.967a2.813,2.813,0,1,0,2.813,2.813,2.812,2.812,0,0,0-2.813-2.813m-8.957-27.887a3.134,3.134,0,1,0,3.135,3.134,3.134,3.134,0,0,0-3.135-3.134m-8.956-27.968a3.536,3.536,0,1,0,3.536,3.537,3.537,3.537,0,0,0-3.536-3.537m-8.957-27.967a3.939,3.939,0,1,0,3.938,3.938,3.938,3.938,0,0,0-3.938-3.938m-8.957-27.887a4.26,4.26,0,1,0,4.26,4.26,4.259,4.259,0,0,0-4.26-4.26m-8.956-27.967a4.661,4.661,0,1,0,4.661,4.661,4.661,4.661,0,0,0-4.661-4.661m-8.957-27.887a4.983,4.983,0,1,0,4.983,4.983,4.983,4.983,0,0,0-4.983-4.983m-8.956-27.968a5.385,5.385,0,1,0,5.385,5.385,5.385,5.385,0,0,0-5.385-5.385m-8.957-27.887a5.707,5.707,0,1,0,5.707,5.707,5.707,5.707,0,0,0-5.707-5.707m-8.957-27.967a6.108,6.108,0,1,0,6.109,6.108,6.108,6.108,0,0,0-6.109-6.108m-8.956-27.887a6.43,6.43,0,1,0,6.43,6.43,6.43,6.43,0,0,0-6.43-6.43m-8.957-27.967a6.831,6.831,0,1,0,6.832,6.831,6.831,6.831,0,0,0-6.832-6.831m-8.956-27.887a7.153,7.153,0,1,0,7.153,7.153,7.152,7.152,0,0,0-7.153-7.153m-8.957-27.887a7.475,7.475,0,1,0,7.475,7.474,7.474,7.474,0,0,0-7.475-7.474m-8.956-27.968a7.877,7.877,0,1,0,7.876,7.877,7.877,7.877,0,0,0-7.876-7.877m-8.957-27.886a8.2,8.2,0,1,0,8.2,8.2,8.2,8.2,0,0,0-8.2-8.2m-8.957-27.887a8.519,8.519,0,1,0,8.52,8.519,8.519,8.519,0,0,0-8.52-8.519m-8.956-27.968A8.922,8.922,0,1,0,878.875,428a8.921,8.921,0,0,0-8.921-8.921M861,391.189a9.243,9.243,0,1,0,9.243,9.243A9.243,9.243,0,0,0,861,391.189M852.041,363.3a9.564,9.564,0,1,0,9.564,9.564,9.565,9.565,0,0,0-9.564-9.564m-8.957-27.887a9.886,9.886,0,1,0,9.886,9.886,9.886,9.886,0,0,0-9.886-9.886m-8.956-27.887a10.207,10.207,0,1,0,10.207,10.207,10.207,10.207,0,0,0-10.207-10.207m-8.957-27.887A10.529,10.529,0,1,0,835.7,290.17a10.529,10.529,0,0,0-10.529-10.529m-8.957-27.887a10.85,10.85,0,1,0,10.851,10.85,10.851,10.851,0,0,0-10.851-10.85m-8.956-27.887a11.172,11.172,0,1,0,11.171,11.172,11.172,11.172,0,0,0-11.171-11.172M798.3,195.98a11.493,11.493,0,1,0,11.493,11.494A11.494,11.494,0,0,0,798.3,195.98m-8.956-27.887a11.815,11.815,0,1,0,11.814,11.815,11.815,11.815,0,0,0-11.814-11.815m-8.957-27.244a11.493,11.493,0,1,0,11.493,11.494,11.494,11.494,0,0,0-11.493-11.494m-8.957-21.216a5.144,5.144,0,1,0,5.144,5.144,5.144,5.144,0,0,0-5.144-5.144m-8.956-22.582a.161.161,0,1,0,.161.161.161.161,0,0,0-.161-.161M1121.434,1108.1a.08.08,0,1,0,.08.08.08.08,0,0,0-.08-.08m-8.957-27.887a.4.4,0,1,0,.4.4.4.4,0,0,0-.4-.4m-8.956-27.887a.723.723,0,1,0,.723.723.724.724,0,0,0-.723-.723m-8.957-27.968a1.126,1.126,0,1,0,1.125,1.126,1.126,1.126,0,0,0-1.125-1.126m-8.956-27.967a1.527,1.527,0,1,0,1.527,1.527,1.528,1.528,0,0,0-1.527-1.527m-8.957-27.967a1.929,1.929,0,1,0,1.929,1.929,1.929,1.929,0,0,0-1.929-1.929m-8.957-27.968a2.331,2.331,0,1,0,2.331,2.331,2.331,2.331,0,0,0-2.331-2.331m-8.956-27.887a2.652,2.652,0,1,0,2.652,2.653,2.652,2.652,0,0,0-2.652-2.653m-8.957-27.967a3.054,3.054,0,1,0,3.054,3.054,3.054,3.054,0,0,0-3.054-3.054m-8.956-27.967a3.456,3.456,0,1,0,3.456,3.456,3.456,3.456,0,0,0-3.456-3.456m-8.957-27.887a3.778,3.778,0,1,0,3.777,3.777,3.777,3.777,0,0,0-3.777-3.777m-8.957-27.968a4.18,4.18,0,1,0,4.18,4.18,4.18,4.18,0,0,0-4.18-4.18m-8.956-27.967a4.581,4.581,0,1,0,4.581,4.581,4.581,4.581,0,0,0-4.581-4.581M1005,744.924a4.9,4.9,0,1,0,4.9,4.9,4.9,4.9,0,0,0-4.9-4.9m-8.956-27.967a5.3,5.3,0,1,0,5.3,5.3,5.3,5.3,0,0,0-5.3-5.3m-8.957-27.887a5.626,5.626,0,1,0,5.626,5.626,5.626,5.626,0,0,0-5.626-5.626M978.129,661.1a6.028,6.028,0,1,0,6.027,6.028,6.028,6.028,0,0,0-6.027-6.028m-8.957-27.887a6.349,6.349,0,1,0,6.349,6.35,6.349,6.349,0,0,0-6.349-6.35m-8.957-27.967A6.751,6.751,0,1,0,966.967,612a6.752,6.752,0,0,0-6.752-6.751m-8.956-27.887a7.073,7.073,0,1,0,7.073,7.073,7.073,7.073,0,0,0-7.073-7.073M942.3,549.474a7.395,7.395,0,1,0,7.394,7.394,7.395,7.395,0,0,0-7.394-7.394m-8.956-27.967a7.8,7.8,0,1,0,7.8,7.8,7.8,7.8,0,0,0-7.8-7.8m-8.957-27.887a8.118,8.118,0,1,0,8.118,8.117,8.117,8.117,0,0,0-8.118-8.117m-8.956-27.887a8.439,8.439,0,1,0,8.439,8.439,8.439,8.439,0,0,0-8.439-8.439m-8.957-27.968a8.841,8.841,0,1,0,8.841,8.841,8.841,8.841,0,0,0-8.841-8.841m-8.957-27.886a9.162,9.162,0,1,0,9.163,9.162,9.162,9.162,0,0,0-9.163-9.162m-8.956-27.887a9.484,9.484,0,1,0,9.484,9.483,9.484,9.484,0,0,0-9.484-9.483M879.606,354.1a9.805,9.805,0,1,0,9.806,9.806,9.805,9.805,0,0,0-9.806-9.806m-8.956-27.886a10.127,10.127,0,1,0,10.126,10.126,10.126,10.126,0,0,0-10.126-10.126m-8.957-27.887a10.448,10.448,0,1,0,10.448,10.448,10.448,10.448,0,0,0-10.448-10.448m-8.957-27.887a10.77,10.77,0,1,0,10.77,10.769,10.768,10.768,0,0,0-10.77-10.769m-8.956-27.887a11.091,11.091,0,1,0,11.091,11.091,11.09,11.09,0,0,0-11.091-11.091m-8.957-27.887a11.412,11.412,0,1,0,11.413,11.413,11.412,11.412,0,0,0-11.413-11.413m-8.956-27.887A11.734,11.734,0,1,0,837.6,198.517a11.734,11.734,0,0,0-11.734-11.734M816.91,158.9a12.056,12.056,0,1,0,12.056,12.056A12.056,12.056,0,0,0,816.91,158.9m-8.956-27.887a12.377,12.377,0,1,0,12.377,12.377,12.377,12.377,0,0,0-12.377-12.377M799,103.2a12.618,12.618,0,1,0,12.618,12.619A12.618,12.618,0,0,0,799,103.2M790.04,79.494a8.761,8.761,0,1,0,8.761,8.761,8.761,8.761,0,0,0-8.761-8.761m-8.956-19.93a1.125,1.125,0,1,0,1.125,1.126,1.125,1.125,0,0,0-1.125-1.126m358.959,1011.61a.482.482,0,1,0,.482.482.482.482,0,0,0-.482-.482m-8.957-28.128a1.044,1.044,0,1,0,1.045,1.045,1.044,1.044,0,0,0-1.045-1.045m-8.956-27.968a1.447,1.447,0,1,0,1.446,1.447,1.447,1.447,0,0,0-1.446-1.447m-8.957-27.967a1.848,1.848,0,1,0,1.849,1.849,1.849,1.849,0,0,0-1.849-1.849m-8.957-27.887a2.17,2.17,0,1,0,2.17,2.17,2.171,2.171,0,0,0-2.17-2.17m-8.956-27.967a2.572,2.572,0,1,0,2.572,2.572,2.571,2.571,0,0,0-2.572-2.572m-8.957-27.968a2.974,2.974,0,1,0,2.974,2.974,2.974,2.974,0,0,0-2.974-2.974m-8.956-27.967a3.375,3.375,0,1,0,3.375,3.376,3.375,3.375,0,0,0-3.375-3.376m-8.957-27.887a3.7,3.7,0,1,0,3.7,3.7,3.7,3.7,0,0,0-3.7-3.7m-8.956-27.967a4.1,4.1,0,1,0,4.1,4.1,4.1,4.1,0,0,0-4.1-4.1m-8.957-27.887a4.421,4.421,0,1,0,4.42,4.42,4.421,4.421,0,0,0-4.42-4.42m-8.957-27.968a4.823,4.823,0,1,0,4.823,4.823,4.822,4.822,0,0,0-4.823-4.823m-8.956-27.887a5.144,5.144,0,1,0,5.144,5.144,5.144,5.144,0,0,0-5.144-5.144m-8.957-27.967a5.546,5.546,0,1,0,5.546,5.546,5.545,5.545,0,0,0-5.546-5.546m-8.956-27.887a5.867,5.867,0,1,0,5.867,5.867,5.868,5.868,0,0,0-5.867-5.867m-8.957-27.967a6.269,6.269,0,1,0,6.269,6.269,6.269,6.269,0,0,0-6.269-6.269m-8.957-27.968a6.671,6.671,0,1,0,6.671,6.671,6.67,6.67,0,0,0-6.671-6.671m-8.956-27.887a6.992,6.992,0,1,0,6.992,6.993,6.992,6.992,0,0,0-6.992-6.993m-8.957-27.887a7.314,7.314,0,1,0,7.314,7.314,7.314,7.314,0,0,0-7.314-7.314M969.868,540.2a7.716,7.716,0,1,0,7.715,7.716,7.716,7.716,0,0,0-7.715-7.716m-8.957-27.887a8.037,8.037,0,1,0,8.037,8.037,8.037,8.037,0,0,0-8.037-8.037m-8.956-27.887a8.359,8.359,0,1,0,8.358,8.359,8.358,8.358,0,0,0-8.358-8.359M943,456.535a8.68,8.68,0,1,0,8.68,8.68,8.68,8.68,0,0,0-8.68-8.68m-8.957-27.887a9,9,0,1,0,9,9,9,9,0,0,0-9-9m-8.956-27.967a9.4,9.4,0,1,0,9.4,9.4,9.4,9.4,0,0,0-9.4-9.4m-8.957-27.887a9.725,9.725,0,1,0,9.725,9.725,9.725,9.725,0,0,0-9.725-9.725m-8.956-27.887a10.046,10.046,0,1,0,10.046,10.046,10.047,10.047,0,0,0-10.046-10.046m-8.957-27.887a10.368,10.368,0,1,0,10.368,10.368,10.368,10.368,0,0,0-10.368-10.368m-8.956-27.887a10.689,10.689,0,1,0,10.689,10.689,10.69,10.69,0,0,0-10.689-10.689M880.3,261.246a11.011,11.011,0,1,0,11.011,11.011A11.011,11.011,0,0,0,880.3,261.246m-8.957-27.887a11.332,11.332,0,1,0,11.333,11.332,11.333,11.333,0,0,0-11.333-11.332m-8.956-27.887a11.654,11.654,0,1,0,11.654,11.654,11.654,11.654,0,0,0-11.654-11.654m-8.957-27.887a11.975,11.975,0,1,0,11.976,11.975,11.975,11.975,0,0,0-11.976-11.975M844.476,149.7a12.3,12.3,0,1,0,12.3,12.3,12.3,12.3,0,0,0-12.3-12.3m-8.957-27.887a12.619,12.619,0,1,0,12.618,12.618,12.618,12.618,0,0,0-12.618-12.618M826.562,94a12.86,12.86,0,1,0,12.86,12.86A12.86,12.86,0,0,0,826.562,94m-8.956-27.887A13.181,13.181,0,1,0,830.787,79.3a13.181,13.181,0,0,0-13.181-13.181m-8.957-26.038A11.654,11.654,0,1,0,820.3,51.733a11.654,11.654,0,0,0-11.654-11.654m-8.956-19.126a3.215,3.215,0,1,0,3.215,3.214,3.214,3.214,0,0,0-3.215-3.214m358.959,1013.538a.643.643,0,1,0,.643.643.643.643,0,0,0-.643-.643m-8.957-28.61a1.688,1.688,0,1,0,1.688,1.687,1.687,1.687,0,0,0-1.688-1.687m-8.956-27.968a2.09,2.09,0,1,0,2.089,2.09,2.09,2.09,0,0,0-2.089-2.09m-8.957-27.967a2.492,2.492,0,1,0,2.491,2.491,2.491,2.491,0,0,0-2.491-2.491m-8.957-27.967a2.893,2.893,0,1,0,2.894,2.893,2.893,2.893,0,0,0-2.894-2.893m-8.956-27.887a3.215,3.215,0,1,0,3.215,3.215,3.214,3.214,0,0,0-3.215-3.215m-8.957-27.968a3.617,3.617,0,1,0,3.617,3.617,3.617,3.617,0,0,0-3.617-3.617m-8.956-27.967a4.018,4.018,0,1,0,4.018,4.019,4.019,4.019,0,0,0-4.018-4.019M1087,810.27a4.34,4.34,0,1,0,4.34,4.34,4.34,4.34,0,0,0-4.34-4.34m-8.957-27.967a4.742,4.742,0,1,0,4.742,4.742,4.742,4.742,0,0,0-4.742-4.742m-8.956-27.887a5.063,5.063,0,1,0,5.063,5.063,5.063,5.063,0,0,0-5.063-5.063m-8.957-27.968a5.466,5.466,0,1,0,5.466,5.466,5.466,5.466,0,0,0-5.466-5.466m-8.956-27.887a5.787,5.787,0,1,0,5.786,5.787,5.787,5.787,0,0,0-5.786-5.787m-8.957-27.967a6.189,6.189,0,1,0,6.189,6.189,6.189,6.189,0,0,0-6.189-6.189m-8.956-27.887a6.51,6.51,0,1,0,6.51,6.51,6.511,6.511,0,0,0-6.51-6.51M1024.3,614.74a6.912,6.912,0,1,0,6.912,6.912,6.912,6.912,0,0,0-6.912-6.912m-8.957-27.887a7.233,7.233,0,1,0,7.234,7.233,7.233,7.233,0,0,0-7.234-7.233m-8.956-27.887a7.555,7.555,0,1,0,7.555,7.555,7.554,7.554,0,0,0-7.555-7.555M997.433,531a7.957,7.957,0,1,0,7.957,7.957A7.958,7.958,0,0,0,997.433,531m-8.956-27.887a8.279,8.279,0,1,0,8.278,8.279,8.279,8.279,0,0,0-8.278-8.279m-8.957-27.887a8.6,8.6,0,1,0,8.6,8.6,8.6,8.6,0,0,0-8.6-8.6m-8.956-27.887a8.921,8.921,0,1,0,8.921,8.922,8.922,8.922,0,0,0-8.921-8.922m-8.957-27.967a9.323,9.323,0,1,0,9.323,9.323,9.323,9.323,0,0,0-9.323-9.323m-8.957-27.887a9.645,9.645,0,1,0,9.645,9.645,9.645,9.645,0,0,0-9.645-9.645M943.694,363.6a9.966,9.966,0,1,0,9.966,9.966,9.966,9.966,0,0,0-9.966-9.966m-8.957-27.887A10.287,10.287,0,1,0,945.025,346a10.287,10.287,0,0,0-10.288-10.288m-8.956-27.887a10.609,10.609,0,1,0,10.609,10.609,10.609,10.609,0,0,0-10.609-10.609m-8.957-27.887a10.93,10.93,0,1,0,10.931,10.931,10.931,10.931,0,0,0-10.931-10.931m-8.957-27.887A11.252,11.252,0,1,0,919.119,263.3a11.252,11.252,0,0,0-11.252-11.252m-8.956-27.887a11.574,11.574,0,1,0,11.573,11.574,11.574,11.574,0,0,0-11.573-11.574m-8.957-27.887a11.895,11.895,0,1,0,11.9,11.9,11.9,11.9,0,0,0-11.9-11.9M881,168.387A12.217,12.217,0,1,0,893.214,180.6,12.217,12.217,0,0,0,881,168.387M872.041,140.5a12.538,12.538,0,1,0,12.538,12.538A12.539,12.539,0,0,0,872.041,140.5m-8.956-27.806a12.779,12.779,0,1,0,12.779,12.779,12.779,12.779,0,0,0-12.779-12.779m-8.957-27.887a13.1,13.1,0,1,0,13.1,13.1,13.1,13.1,0,0,0-13.1-13.1M845.171,56.92a13.422,13.422,0,1,0,13.422,13.422A13.422,13.422,0,0,0,845.171,56.92m-8.956-27.807a13.663,13.663,0,1,0,13.663,13.663,13.663,13.663,0,0,0-13.663-13.663M827.258,9.022a6.189,6.189,0,1,0,6.189,6.189,6.188,6.188,0,0,0-6.189-6.189m350,989.108a.482.482,0,1,0,.482.482.483.483,0,0,0-.482-.482m-8.957-29.173a2.09,2.09,0,1,0,2.09,2.089,2.09,2.09,0,0,0-2.09-2.089m-8.957-28.289a2.813,2.813,0,1,0,2.813,2.813,2.813,2.813,0,0,0-2.813-2.813m-8.956-27.887a3.134,3.134,0,1,0,3.134,3.134,3.135,3.135,0,0,0-3.134-3.134m-8.957-27.967a3.536,3.536,0,1,0,3.537,3.536,3.536,3.536,0,0,0-3.537-3.536m-8.956-27.887a3.858,3.858,0,1,0,3.858,3.857,3.857,3.857,0,0,0-3.858-3.857m-8.957-27.968a4.26,4.26,0,1,0,4.26,4.26,4.26,4.26,0,0,0-4.26-4.26m-8.956-27.887a4.581,4.581,0,1,0,4.581,4.581,4.581,4.581,0,0,0-4.581-4.581m-8.957-27.967a4.983,4.983,0,1,0,4.983,4.983,4.983,4.983,0,0,0-4.983-4.983m-8.957-27.887a5.3,5.3,0,1,0,5.305,5.3,5.3,5.3,0,0,0-5.305-5.3m-8.956-27.967a5.706,5.706,0,1,0,5.706,5.706,5.706,5.706,0,0,0-5.706-5.706m-8.957-27.887a6.027,6.027,0,1,0,6.028,6.027,6.027,6.027,0,0,0-6.028-6.027m-8.956-27.968a6.43,6.43,0,1,0,6.429,6.43,6.43,6.43,0,0,0-6.429-6.43m-8.957-27.967a6.831,6.831,0,1,0,6.832,6.831,6.832,6.832,0,0,0-6.832-6.831m-8.956-27.887a7.153,7.153,0,1,0,7.153,7.153,7.153,7.153,0,0,0-7.153-7.153m-8.957-27.887a7.474,7.474,0,1,0,7.474,7.475,7.475,7.475,0,0,0-7.474-7.475m-8.957-27.887a7.8,7.8,0,1,0,7.8,7.8,7.8,7.8,0,0,0-7.8-7.8M1025,521.8a8.2,8.2,0,1,0,8.2,8.2,8.2,8.2,0,0,0-8.2-8.2m-8.957-27.887a8.52,8.52,0,1,0,8.52,8.519,8.519,8.519,0,0,0-8.52-8.519m-8.956-27.887a8.84,8.84,0,1,0,8.84,8.841,8.841,8.841,0,0,0-8.84-8.841m-8.957-27.968a9.243,9.243,0,1,0,9.243,9.243,9.243,9.243,0,0,0-9.243-9.243m-8.957-27.806a9.484,9.484,0,1,0,9.484,9.484,9.484,9.484,0,0,0-9.484-9.484m-8.956-27.968a9.886,9.886,0,1,0,9.886,9.886,9.886,9.886,0,0,0-9.886-9.886M971.259,354.4a10.207,10.207,0,1,0,10.207,10.208A10.207,10.207,0,0,0,971.259,354.4M962.3,326.511a10.529,10.529,0,1,0,10.528,10.529A10.529,10.529,0,0,0,962.3,326.511m-8.957-27.887a10.851,10.851,0,1,0,10.85,10.851,10.851,10.851,0,0,0-10.85-10.851m-8.956-27.886a11.171,11.171,0,1,0,11.171,11.171,11.171,11.171,0,0,0-11.171-11.171m-8.957-27.887a11.493,11.493,0,1,0,11.493,11.493,11.492,11.492,0,0,0-11.493-11.493m-8.957-27.888a11.815,11.815,0,1,0,11.815,11.815,11.815,11.815,0,0,0-11.815-11.815m-8.956-27.806a12.056,12.056,0,1,0,12.056,12.056,12.056,12.056,0,0,0-12.056-12.056m-8.957-27.967a12.457,12.457,0,1,0,12.458,12.457,12.457,12.457,0,0,0-12.458-12.457m-8.956-27.807a12.7,12.7,0,1,0,12.7,12.7,12.7,12.7,0,0,0-12.7-12.7M890.65,103.5a13.02,13.02,0,1,0,13.02,13.02,13.02,13.02,0,0,0-13.02-13.02m-8.957-27.887a13.341,13.341,0,1,0,13.342,13.342,13.341,13.341,0,0,0-13.342-13.342M872.737,47.8A13.583,13.583,0,1,0,886.32,61.385,13.583,13.583,0,0,0,872.737,47.8M863.78,20A13.824,13.824,0,1,0,877.6,33.82,13.824,13.824,0,0,0,863.78,20M854.824,4.567a1.688,1.688,0,1,0,1.688,1.687,1.688,1.688,0,0,0-1.688-1.687m341.045,957.362a.161.161,0,1,0,.161.161.161.161,0,0,0-.161-.161m-8.956-29.414a2.009,2.009,0,1,0,2.009,2.009,2.009,2.009,0,0,0-2.009-2.009m-8.957-28.932a3.375,3.375,0,1,0,3.376,3.376,3.375,3.375,0,0,0-3.376-3.376M1169,875.616a3.777,3.777,0,1,0,3.777,3.777,3.778,3.778,0,0,0-3.777-3.777m-8.957-27.967a4.179,4.179,0,1,0,4.18,4.179,4.179,4.179,0,0,0-4.18-4.179m-8.956-27.887a4.5,4.5,0,1,0,4.5,4.5,4.5,4.5,0,0,0-4.5-4.5m-8.957-27.968a4.9,4.9,0,1,0,4.9,4.9,4.9,4.9,0,0,0-4.9-4.9m-8.957-27.887a5.225,5.225,0,1,0,5.225,5.224,5.224,5.224,0,0,0-5.225-5.224m-8.956-27.967a5.626,5.626,0,1,0,5.626,5.626,5.626,5.626,0,0,0-5.626-5.626m-8.957-27.887a5.948,5.948,0,1,0,5.948,5.947,5.948,5.948,0,0,0-5.948-5.947m-8.956-27.967a6.349,6.349,0,1,0,6.349,6.349,6.349,6.349,0,0,0-6.349-6.349m-8.957-27.887a6.671,6.671,0,1,0,6.671,6.67,6.671,6.671,0,0,0-6.671-6.67m-8.957-27.968a7.073,7.073,0,1,0,7.073,7.073,7.073,7.073,0,0,0-7.073-7.073m-8.956-27.887a7.395,7.395,0,1,0,7.394,7.4,7.394,7.394,0,0,0-7.394-7.4m-8.957-27.887a7.716,7.716,0,1,0,7.716,7.716,7.716,7.716,0,0,0-7.716-7.716m-8.956-27.967a8.117,8.117,0,1,0,8.117,8.118,8.118,8.118,0,0,0-8.117-8.118m-8.957-27.887a8.439,8.439,0,1,0,8.439,8.439,8.439,8.439,0,0,0-8.439-8.439m-8.956-27.887a8.76,8.76,0,1,0,8.76,8.761,8.76,8.76,0,0,0-8.76-8.761m-8.957-27.887a9.082,9.082,0,1,0,9.082,9.082,9.082,9.082,0,0,0-9.082-9.082m-8.957-27.887a9.4,9.4,0,1,0,9.4,9.4,9.4,9.4,0,0,0-9.4-9.4m-8.956-27.967a9.8,9.8,0,1,0,9.8,9.8,9.805,9.805,0,0,0-9.8-9.8m-8.957-27.887a10.126,10.126,0,1,0,10.127,10.127,10.127,10.127,0,0,0-10.127-10.127M998.825,345.2a10.448,10.448,0,1,0,10.448,10.448A10.449,10.449,0,0,0,998.825,345.2m-8.957-27.887a10.77,10.77,0,1,0,10.77,10.77,10.77,10.77,0,0,0-10.77-10.77m-8.956-27.887A11.091,11.091,0,1,0,992,300.518a11.092,11.092,0,0,0-11.091-11.091m-8.957-27.887a11.412,11.412,0,1,0,11.413,11.413,11.413,11.413,0,0,0-11.413-11.413M963,233.653a11.734,11.734,0,1,0,11.735,11.734A11.734,11.734,0,0,0,963,233.653m-8.956-27.807a11.976,11.976,0,1,0,11.975,11.976,11.976,11.976,0,0,0-11.975-11.976m-8.957-27.967a12.377,12.377,0,1,0,12.378,12.377,12.377,12.377,0,0,0-12.378-12.377m-8.956-27.807a12.618,12.618,0,1,0,12.618,12.619,12.619,12.619,0,0,0-12.618-12.619m-8.957-27.887a12.94,12.94,0,1,0,12.94,12.94,12.941,12.941,0,0,0-12.94-12.94M918.215,94.3a13.262,13.262,0,1,0,13.262,13.262A13.262,13.262,0,0,0,918.215,94.3m-8.956-27.806a13.5,13.5,0,1,0,13.5,13.5,13.5,13.5,0,0,0-13.5-13.5M900.3,38.6a13.824,13.824,0,1,0,13.824,13.824A13.824,13.824,0,0,0,900.3,38.6m-8.956-24.913a11.171,11.171,0,1,0,11.171,11.171,11.171,11.171,0,0,0-11.171-11.171m314.176,882.783a1.527,1.527,0,1,0,1.527,1.527,1.527,1.527,0,0,0-1.527-1.527m-8.957-29.9a3.858,3.858,0,1,0,3.858,3.858,3.858,3.858,0,0,0-3.858-3.858m-8.956-28.128a4.421,4.421,0,1,0,4.42,4.42,4.42,4.42,0,0,0-4.42-4.42m-8.957-27.967a4.822,4.822,0,1,0,4.822,4.822,4.822,4.822,0,0,0-4.822-4.822M1169.7,782.6a5.144,5.144,0,1,0,5.143,5.144,5.144,5.144,0,0,0-5.143-5.144m-8.957-27.887a5.466,5.466,0,1,0,5.465,5.466,5.465,5.465,0,0,0-5.465-5.466m-8.957-27.967a5.867,5.867,0,1,0,5.868,5.867,5.867,5.867,0,0,0-5.868-5.867m-8.956-27.967a6.269,6.269,0,1,0,6.269,6.269,6.269,6.269,0,0,0-6.269-6.269m-8.957-27.887a6.59,6.59,0,1,0,6.591,6.59,6.589,6.589,0,0,0-6.591-6.59M1124.913,643a6.912,6.912,0,1,0,6.912,6.912,6.911,6.911,0,0,0-6.912-6.912m-8.957-27.967a7.314,7.314,0,1,0,7.314,7.313,7.314,7.314,0,0,0-7.314-7.313M1107,587.147a7.635,7.635,0,1,0,7.636,7.635,7.635,7.635,0,0,0-7.636-7.635m-8.956-27.887a7.956,7.956,0,1,0,7.957,7.956,7.956,7.956,0,0,0-7.957-7.956m-8.957-27.968a8.359,8.359,0,1,0,8.359,8.359,8.359,8.359,0,0,0-8.359-8.359M1080.13,503.4a8.68,8.68,0,1,0,8.68,8.68,8.68,8.68,0,0,0-8.68-8.68m-8.957-27.887a9,9,0,1,0,9,9,9,9,0,0,0-9-9m-8.956-27.887a9.324,9.324,0,1,0,9.323,9.323,9.323,9.323,0,0,0-9.323-9.323m-8.957-27.887a9.645,9.645,0,1,0,9.645,9.645,9.645,9.645,0,0,0-9.645-9.645m-8.957-27.967a10.046,10.046,0,1,0,10.047,10.046,10.046,10.046,0,0,0-10.047-10.046m-8.956-27.807a10.288,10.288,0,1,0,10.287,10.288,10.288,10.288,0,0,0-10.287-10.288M1026.39,336a10.689,10.689,0,1,0,10.69,10.689A10.689,10.689,0,0,0,1026.39,336m-8.956-27.807a10.931,10.931,0,1,0,10.93,10.931,10.931,10.931,0,0,0-10.93-10.931m-8.957-27.967a11.333,11.333,0,1,0,11.332,11.333,11.332,11.332,0,0,0-11.332-11.333m-8.957-27.887A11.654,11.654,0,1,0,1011.174,264a11.654,11.654,0,0,0-11.654-11.654m-8.956-27.806a11.9,11.9,0,1,0,11.895,11.9,11.894,11.894,0,0,0-11.895-11.9m-8.957-27.887a12.216,12.216,0,1,0,12.217,12.216,12.216,12.216,0,0,0-12.217-12.216m-8.956-27.887A12.538,12.538,0,1,0,985.189,181.3a12.537,12.537,0,0,0-12.538-12.538m-8.957-27.887a12.859,12.859,0,1,0,12.86,12.859,12.859,12.859,0,0,0-12.86-12.859m-8.956-27.887a13.181,13.181,0,1,0,13.181,13.181,13.181,13.181,0,0,0-13.181-13.181m-8.957-27.807A13.422,13.422,0,1,0,959.2,98.6a13.422,13.422,0,0,0-13.422-13.422m-8.957-27.887a13.743,13.743,0,1,0,13.744,13.744,13.743,13.743,0,0,0-13.744-13.744m-8.956-27.887a14.065,14.065,0,1,0,14.065,14.065,14.065,14.065,0,0,0-14.065-14.065M918.911,9.236a6.671,6.671,0,1,0,6.671,6.671,6.671,6.671,0,0,0-6.671-6.671m305.22,851.6a.643.643,0,1,0,.643.643.643.643,0,0,0-.643-.643m-8.957-30.7a3.777,3.777,0,1,0,3.778,3.778,3.777,3.777,0,0,0-3.778-3.778m-8.956-28.851a5.064,5.064,0,1,0,5.063,5.063,5.063,5.063,0,0,0-5.063-5.063m-8.957-27.887a5.385,5.385,0,1,0,5.385,5.385,5.385,5.385,0,0,0-5.385-5.385m-8.957-27.968a5.787,5.787,0,1,0,5.787,5.787,5.787,5.787,0,0,0-5.787-5.787m-8.956-27.887a6.108,6.108,0,1,0,6.108,6.109,6.108,6.108,0,0,0-6.108-6.109m-8.957-27.967a6.51,6.51,0,1,0,6.51,6.51,6.51,6.51,0,0,0-6.51-6.51m-8.956-27.887a6.832,6.832,0,1,0,6.831,6.832,6.832,6.832,0,0,0-6.831-6.832m-8.957-27.967a7.233,7.233,0,1,0,7.234,7.233,7.233,7.233,0,0,0-7.234-7.233m-8.957-27.887a7.555,7.555,0,1,0,7.556,7.555,7.554,7.554,0,0,0-7.556-7.555m-8.956-27.887a7.877,7.877,0,1,0,7.876,7.876,7.877,7.877,0,0,0-7.876-7.876m-8.957-27.887a8.2,8.2,0,1,0,8.2,8.2,8.2,8.2,0,0,0-8.2-8.2m-8.956-27.968a8.6,8.6,0,1,0,8.6,8.6,8.6,8.6,0,0,0-8.6-8.6m-8.957-27.886a8.921,8.921,0,1,0,8.921,8.921,8.921,8.921,0,0,0-8.921-8.921m-8.956-27.887a9.242,9.242,0,1,0,9.242,9.242,9.243,9.243,0,0,0-9.242-9.242m-8.957-27.887a9.564,9.564,0,1,0,9.564,9.564,9.564,9.564,0,0,0-9.564-9.564m-8.957-27.887a9.885,9.885,0,1,0,9.886,9.885,9.885,9.885,0,0,0-9.886-9.885m-8.956-27.887a10.207,10.207,0,1,0,10.207,10.207,10.207,10.207,0,0,0-10.207-10.207m-8.957-27.968a10.61,10.61,0,1,0,10.609,10.609,10.609,10.609,0,0,0-10.609-10.609m-8.956-27.806a10.85,10.85,0,1,0,10.85,10.85,10.851,10.851,0,0,0-10.85-10.85M1045,298.918a11.252,11.252,0,1,0,11.252,11.252A11.252,11.252,0,0,0,1045,298.918m-8.956-27.887a11.574,11.574,0,1,0,11.573,11.574,11.574,11.574,0,0,0-11.573-11.574m-8.957-27.806a11.814,11.814,0,1,0,11.815,11.814,11.814,11.814,0,0,0-11.815-11.814m-8.957-27.887a12.136,12.136,0,1,0,12.136,12.136,12.136,12.136,0,0,0-12.136-12.136m-8.956-27.968a12.539,12.539,0,1,0,12.538,12.538,12.538,12.538,0,0,0-12.538-12.538m-8.957-27.806a12.779,12.779,0,1,0,12.779,12.779,12.779,12.779,0,0,0-12.779-12.779m-8.956-27.887a13.1,13.1,0,1,0,13.1,13.1,13.1,13.1,0,0,0-13.1-13.1M982.3,103.87a13.342,13.342,0,1,0,13.342,13.342A13.343,13.343,0,0,0,982.3,103.87m-8.957-27.887A13.663,13.663,0,1,0,987.01,89.646a13.664,13.664,0,0,0-13.664-13.663M964.39,48.1a13.985,13.985,0,1,0,13.985,13.985A13.985,13.985,0,0,0,964.39,48.1M955.433,20.29a14.226,14.226,0,1,0,14.226,14.225A14.226,14.226,0,0,0,955.433,20.29M946.477,4.86a2.09,2.09,0,1,0,2.089,2.09,2.09,2.09,0,0,0-2.089-2.09M1242.74,824.8a.161.161,0,1,0,.16.161.161.161,0,0,0-.16-.161m-8.957-30.459a3.055,3.055,0,1,0,3.054,3.055,3.054,3.054,0,0,0-3.054-3.055m-8.956-30.137a5.626,5.626,0,1,0,5.625,5.626,5.626,5.626,0,0,0-5.625-5.626m-8.957-27.967a6.028,6.028,0,1,0,6.028,6.028,6.028,6.028,0,0,0-6.028-6.028m-8.957-27.968a6.43,6.43,0,1,0,6.43,6.43,6.429,6.429,0,0,0-6.43-6.43m-8.956-27.887a6.751,6.751,0,1,0,6.751,6.752,6.751,6.751,0,0,0-6.751-6.752M1189,652.492a7.073,7.073,0,1,0,7.073,7.073,7.073,7.073,0,0,0-7.073-7.073m-8.956-27.967a7.474,7.474,0,1,0,7.474,7.475,7.475,7.475,0,0,0-7.474-7.475m-8.957-27.887a7.8,7.8,0,1,0,7.8,7.8,7.8,7.8,0,0,0-7.8-7.8m-8.957-27.887a8.118,8.118,0,1,0,8.118,8.118,8.117,8.117,0,0,0-8.118-8.118m-8.956-27.887a8.439,8.439,0,1,0,8.439,8.439,8.439,8.439,0,0,0-8.439-8.439m-8.957-27.967a8.841,8.841,0,1,0,8.841,8.841,8.841,8.841,0,0,0-8.841-8.841m-8.956-27.887a9.162,9.162,0,1,0,9.162,9.162,9.162,9.162,0,0,0-9.162-9.162m-8.957-27.887a9.484,9.484,0,1,0,9.484,9.484,9.484,9.484,0,0,0-9.484-9.484m-8.956-27.887a9.805,9.805,0,1,0,9.8,9.8,9.805,9.805,0,0,0-9.8-9.8m-8.957-27.887a10.127,10.127,0,1,0,10.127,10.127,10.127,10.127,0,0,0-10.127-10.127m-8.957-27.887a10.449,10.449,0,1,0,10.449,10.448,10.448,10.448,0,0,0-10.449-10.448m-8.956-27.887a10.77,10.77,0,1,0,10.77,10.77,10.77,10.77,0,0,0-10.77-10.77m-8.957-27.887a11.092,11.092,0,1,0,11.092,11.091,11.091,11.091,0,0,0-11.092-11.091m-8.956-27.967a11.493,11.493,0,1,0,11.493,11.493,11.493,11.493,0,0,0-11.493-11.493m-8.957-27.807a11.734,11.734,0,1,0,11.734,11.734,11.734,11.734,0,0,0-11.734-11.734m-8.957-27.887a12.056,12.056,0,1,0,12.056,12.056,12.056,12.056,0,0,0-12.056-12.056m-8.956-27.887a12.378,12.378,0,1,0,12.377,12.377,12.377,12.377,0,0,0-12.377-12.377m-8.957-27.887a12.7,12.7,0,1,0,12.7,12.7,12.7,12.7,0,0,0-12.7-12.7m-8.956-27.887a13.021,13.021,0,1,0,13.02,13.02,13.021,13.021,0,0,0-13.02-13.02m-8.957-27.806a13.261,13.261,0,1,0,13.262,13.261,13.261,13.261,0,0,0-13.262-13.261m-8.956-27.887a13.583,13.583,0,1,0,13.582,13.582,13.582,13.582,0,0,0-13.582-13.582m-8.957-27.807a13.824,13.824,0,1,0,13.824,13.824,13.824,13.824,0,0,0-13.824-13.824m-8.957-27.887A14.145,14.145,0,1,0,1006.1,53.125a14.145,14.145,0,0,0-14.146-14.146M983,13.744a11.815,11.815,0,1,0,11.814,11.815A11.815,11.815,0,0,0,983,13.744M1252.392,759.1a1.768,1.768,0,1,0,1.768,1.769,1.768,1.768,0,0,0-1.768-1.769m-8.957-31.5a5.706,5.706,0,1,0,5.707,5.706,5.706,5.706,0,0,0-5.707-5.706m-8.956-28.53a6.671,6.671,0,1,0,6.671,6.671,6.671,6.671,0,0,0-6.671-6.671m-8.957-27.887a6.992,6.992,0,1,0,6.993,6.992,6.992,6.992,0,0,0-6.993-6.992m-8.956-27.968a7.395,7.395,0,1,0,7.394,7.4,7.4,7.4,0,0,0-7.394-7.4m-8.957-27.887a7.716,7.716,0,1,0,7.716,7.716,7.717,7.717,0,0,0-7.716-7.716m-8.957-27.887a8.038,8.038,0,1,0,8.038,8.038,8.038,8.038,0,0,0-8.038-8.038m-8.956-27.887a8.359,8.359,0,1,0,8.359,8.359,8.36,8.36,0,0,0-8.359-8.359m-8.957-27.967a8.76,8.76,0,1,0,8.761,8.761,8.76,8.76,0,0,0-8.761-8.761m-8.956-27.887a9.082,9.082,0,1,0,9.082,9.082,9.082,9.082,0,0,0-9.082-9.082m-8.957-27.887a9.4,9.4,0,1,0,9.4,9.4,9.4,9.4,0,0,0-9.4-9.4m-8.956-27.887a9.725,9.725,0,1,0,9.725,9.725,9.725,9.725,0,0,0-9.725-9.725m-8.957-27.887a10.047,10.047,0,1,0,10.046,10.047,10.046,10.046,0,0,0-10.046-10.047m-8.957-27.887a10.368,10.368,0,1,0,10.368,10.368,10.368,10.368,0,0,0-10.368-10.368M1127,364.184a10.77,10.77,0,1,0,10.77,10.77,10.77,10.77,0,0,0-10.77-10.77m-8.957-27.807a11.011,11.011,0,1,0,11.011,11.011,11.011,11.011,0,0,0-11.011-11.011m-8.956-27.967a11.413,11.413,0,1,0,11.412,11.413,11.413,11.413,0,0,0-11.412-11.413M1100.13,280.6a11.654,11.654,0,1,0,11.654,11.654A11.654,11.654,0,0,0,1100.13,280.6m-8.956-27.887a11.975,11.975,0,1,0,11.975,11.976,11.976,11.976,0,0,0-11.975-11.976m-8.957-27.887a12.3,12.3,0,1,0,12.3,12.3,12.3,12.3,0,0,0-12.3-12.3m-8.957-27.887a12.618,12.618,0,1,0,12.619,12.619,12.619,12.619,0,0,0-12.619-12.619m-8.956-27.887a12.94,12.94,0,1,0,12.94,12.94,12.94,12.94,0,0,0-12.94-12.94m-8.957-27.806a13.181,13.181,0,1,0,13.181,13.181,13.181,13.181,0,0,0-13.181-13.181m-8.956-27.887a13.5,13.5,0,1,0,13.5,13.5,13.5,13.5,0,0,0-13.5-13.5m-8.957-27.887A13.824,13.824,0,1,0,1051.258,99.3a13.824,13.824,0,0,0-13.824-13.824m-8.957-27.807a14.065,14.065,0,1,0,14.066,14.065,14.066,14.066,0,0,0-14.066-14.065m-8.956-27.887a14.387,14.387,0,1,0,14.386,14.387,14.387,14.387,0,0,0-14.386-14.387m-8.957-20.412A7.234,7.234,0,1,0,1017.8,16.6a7.233,7.233,0,0,0-7.234-7.233M1271,723.545a.8.8,0,1,0,.8.8.8.8,0,0,0-.8-.8m-8.957-31.825a5.063,5.063,0,1,0,5.064,5.063,5.063,5.063,0,0,0-5.064-5.063m-8.956-29.736a7.233,7.233,0,1,0,7.233,7.234,7.234,7.234,0,0,0-7.233-7.234m-8.957-27.967a7.635,7.635,0,1,0,7.635,7.635,7.635,7.635,0,0,0-7.635-7.635m-8.956-27.887a7.957,7.957,0,1,0,7.956,7.957,7.956,7.956,0,0,0-7.956-7.957m-8.957-27.887a8.278,8.278,0,1,0,8.278,8.278,8.278,8.278,0,0,0-8.278-8.278m-8.957-27.968a8.68,8.68,0,1,0,8.681,8.681,8.681,8.681,0,0,0-8.681-8.681m-8.956-27.887a9,9,0,1,0,9,9,9,9,0,0,0-9-9m-8.957-27.887a9.324,9.324,0,1,0,9.323,9.324,9.324,9.324,0,0,0-9.323-9.324m-8.956-27.887a9.645,9.645,0,1,0,9.644,9.645,9.645,9.645,0,0,0-9.644-9.645m-8.957-27.886a9.966,9.966,0,1,0,9.966,9.966,9.965,9.965,0,0,0-9.966-9.966m-8.957-27.887a10.287,10.287,0,1,0,10.288,10.287,10.287,10.287,0,0,0-10.288-10.287m-8.956-27.887a10.609,10.609,0,1,0,10.609,10.609,10.609,10.609,0,0,0-10.609-10.609m-8.957-27.887A10.931,10.931,0,1,0,1165.5,366a10.93,10.93,0,0,0-10.931-10.93m-8.956-27.968a11.333,11.333,0,1,0,11.332,11.333,11.333,11.333,0,0,0-11.332-11.333m-8.957-27.806a11.574,11.574,0,1,0,11.574,11.573,11.572,11.572,0,0,0-11.574-11.573m-8.956-27.887a11.9,11.9,0,1,0,11.895,11.895,11.894,11.894,0,0,0-11.895-11.895m-8.957-27.887a12.216,12.216,0,1,0,12.217,12.216,12.216,12.216,0,0,0-12.217-12.216m-8.957-27.887a12.538,12.538,0,1,0,12.538,12.538,12.538,12.538,0,0,0-12.538-12.538m-8.956-27.887a12.86,12.86,0,1,0,12.859,12.859,12.86,12.86,0,0,0-12.859-12.859m-8.957-27.807a13.1,13.1,0,1,0,13.1,13.1,13.1,13.1,0,0,0-13.1-13.1m-8.956-27.887a13.422,13.422,0,1,0,13.422,13.422,13.422,13.422,0,0,0-13.422-13.422m-8.957-27.887a13.743,13.743,0,1,0,13.744,13.744,13.743,13.743,0,0,0-13.744-13.744M1065,76.358a13.985,13.985,0,1,0,13.985,13.984A13.984,13.984,0,0,0,1065,76.358m-8.956-27.887a14.306,14.306,0,1,0,14.306,14.306,14.306,14.306,0,0,0-14.306-14.306m-8.957-27.807a14.547,14.547,0,1,0,14.548,14.547,14.547,14.547,0,0,0-14.548-14.547m-8.956-15.51a2.492,2.492,0,1,0,2.491,2.492,2.492,2.492,0,0,0-2.491-2.492m251.48,682.512a.16.16,0,1,0,.16.16.161.161,0,0,0-.16-.16m-8.957-30.941a3.536,3.536,0,1,0,3.537,3.536,3.536,3.536,0,0,0-3.537-3.536M1271.7,625.06a7.635,7.635,0,1,0,7.635,7.635,7.636,7.636,0,0,0-7.635-7.635m-8.957-28.128a8.2,8.2,0,1,0,8.2,8.2,8.2,8.2,0,0,0-8.2-8.2m-8.957-27.887a8.52,8.52,0,1,0,8.52,8.519,8.519,8.519,0,0,0-8.52-8.519m-8.956-27.967a8.921,8.921,0,1,0,8.921,8.921,8.921,8.921,0,0,0-8.921-8.921m-8.957-27.887a9.243,9.243,0,1,0,9.243,9.242,9.242,9.242,0,0,0-9.243-9.242m-8.956-27.887a9.564,9.564,0,1,0,9.564,9.564,9.565,9.565,0,0,0-9.564-9.564m-8.957-27.887a9.885,9.885,0,1,0,9.886,9.885,9.886,9.886,0,0,0-9.886-9.885M1209,429.53a10.207,10.207,0,1,0,10.207,10.207A10.207,10.207,0,0,0,1209,429.53m-8.957-27.887a10.529,10.529,0,1,0,10.529,10.528,10.529,10.529,0,0,0-10.529-10.528m-8.957-27.887a10.85,10.85,0,1,0,10.851,10.85,10.85,10.85,0,0,0-10.851-10.85m-8.956-27.887a11.172,11.172,0,1,0,11.171,11.172,11.172,11.172,0,0,0-11.171-11.172m-8.957-27.887a11.493,11.493,0,1,0,11.493,11.493,11.494,11.494,0,0,0-11.493-11.493m-8.956-27.887a11.814,11.814,0,1,0,11.814,11.815,11.815,11.815,0,0,0-11.814-11.815m-8.957-27.887a12.136,12.136,0,1,0,12.136,12.136,12.135,12.135,0,0,0-12.136-12.136m-8.957-27.887a12.457,12.457,0,1,0,12.458,12.458,12.457,12.457,0,0,0-12.458-12.458m-8.956-27.887a12.779,12.779,0,1,0,12.779,12.779,12.779,12.779,0,0,0-12.779-12.779m-8.957-27.807a13.021,13.021,0,1,0,13.021,13.021,13.021,13.021,0,0,0-13.021-13.021m-8.956-27.887a13.342,13.342,0,1,0,13.341,13.342,13.342,13.342,0,0,0-13.341-13.342m-8.957-27.886a13.663,13.663,0,1,0,13.663,13.663,13.663,13.663,0,0,0-13.663-13.663m-8.956-27.807a13.9,13.9,0,1,0,13.9,13.9,13.9,13.9,0,0,0-13.9-13.9m-8.957-27.887a14.226,14.226,0,1,0,14.226,14.226,14.226,14.226,0,0,0-14.226-14.226m-8.957-27.807a14.467,14.467,0,1,0,14.467,14.467,14.468,14.468,0,0,0-14.467-14.467M1074.652,13.8a12.458,12.458,0,1,0,12.457,12.458A12.458,12.458,0,0,0,1074.652,13.8m224.61,607.933a2.009,2.009,0,1,0,2.009,2.009,2.008,2.008,0,0,0-2.009-2.009m-8.956-32.79a7.233,7.233,0,1,0,7.233,7.233,7.233,7.233,0,0,0-7.233-7.233m-8.957-29.093a8.76,8.76,0,1,0,8.76,8.761,8.762,8.762,0,0,0-8.76-8.761m-8.957-27.967a9.163,9.163,0,1,0,9.163,9.162,9.162,9.162,0,0,0-9.163-9.162m-8.956-27.887a9.484,9.484,0,1,0,9.484,9.484,9.484,9.484,0,0,0-9.484-9.484m-8.957-27.887a9.806,9.806,0,1,0,9.806,9.805,9.805,9.805,0,0,0-9.806-9.805m-8.956-27.887a10.127,10.127,0,1,0,10.127,10.127,10.127,10.127,0,0,0-10.127-10.127m-8.957-27.887a10.449,10.449,0,1,0,10.448,10.448,10.449,10.449,0,0,0-10.448-10.448m-8.957-27.887a10.77,10.77,0,1,0,10.77,10.77,10.769,10.769,0,0,0-10.77-10.77m-8.956-27.887a11.091,11.091,0,1,0,11.091,11.092,11.091,11.091,0,0,0-11.091-11.092m-8.957-27.887a11.413,11.413,0,1,0,11.413,11.413,11.413,11.413,0,0,0-11.413-11.413m-8.956-27.887a11.734,11.734,0,1,0,11.734,11.735,11.735,11.735,0,0,0-11.734-11.735m-8.957-27.887a12.056,12.056,0,1,0,12.056,12.056,12.056,12.056,0,0,0-12.056-12.056m-8.956-27.887a12.378,12.378,0,1,0,12.377,12.378,12.378,12.378,0,0,0-12.377-12.378m-8.957-27.887a12.7,12.7,0,1,0,12.7,12.7,12.7,12.7,0,0,0-12.7-12.7m-8.957-27.806a12.939,12.939,0,1,0,12.94,12.94,12.94,12.94,0,0,0-12.94-12.94m-8.956-27.887a13.261,13.261,0,1,0,13.261,13.261,13.262,13.262,0,0,0-13.261-13.261M1147,141.543a13.582,13.582,0,1,0,13.583,13.583A13.583,13.583,0,0,0,1147,141.543m-8.956-27.807a13.824,13.824,0,1,0,13.824,13.824,13.824,13.824,0,0,0-13.824-13.824m-8.957-27.887A14.146,14.146,0,1,0,1143.233,100a14.145,14.145,0,0,0-14.146-14.146m-8.957-27.806a14.387,14.387,0,1,0,14.387,14.386,14.386,14.386,0,0,0-14.387-14.386m-8.956-27.887a14.708,14.708,0,1,0,14.708,14.708,14.708,14.708,0,0,0-14.708-14.708m-8.957-20.574a7.716,7.716,0,1,0,7.716,7.716,7.716,7.716,0,0,0-7.716-7.716m215.654,576.992a.643.643,0,1,0,.643.643.643.643,0,0,0-.643-.643m-8.957-32.79a5.867,5.867,0,1,0,5.868,5.867,5.867,5.867,0,0,0-5.868-5.867m-8.956-31.021a9.323,9.323,0,1,0,9.323,9.323,9.323,9.323,0,0,0-9.323-9.323M1291,494.8a9.725,9.725,0,1,0,9.725,9.725A9.725,9.725,0,0,0,1291,494.8m-8.956-27.887a10.047,10.047,0,1,0,10.046,10.047,10.047,10.047,0,0,0-10.046-10.047m-8.957-27.887a10.368,10.368,0,1,0,10.368,10.368,10.368,10.368,0,0,0-10.368-10.368m-8.956-27.887a10.689,10.689,0,1,0,10.689,10.69,10.69,10.69,0,0,0-10.689-10.69m-8.957-27.887a11.011,11.011,0,1,0,11.011,11.011,11.011,11.011,0,0,0-11.011-11.011m-8.957-27.887a11.333,11.333,0,1,0,11.333,11.333,11.333,11.333,0,0,0-11.333-11.333m-8.956-27.887a11.654,11.654,0,1,0,11.654,11.654,11.654,11.654,0,0,0-11.654-11.654m-8.957-27.886a11.975,11.975,0,1,0,11.976,11.975,11.975,11.975,0,0,0-11.976-11.975m-8.956-27.887a12.3,12.3,0,1,0,12.3,12.3,12.3,12.3,0,0,0-12.3-12.3m-8.957-27.887a12.618,12.618,0,1,0,12.618,12.618,12.618,12.618,0,0,0-12.618-12.618m-8.957-27.807a12.86,12.86,0,1,0,12.86,12.859,12.859,12.859,0,0,0-12.86-12.859m-8.956-27.887A13.181,13.181,0,1,0,1205.66,201.3a13.181,13.181,0,0,0-13.181-13.181m-8.957-27.887a13.5,13.5,0,1,0,13.5,13.5,13.5,13.5,0,0,0-13.5-13.5m-8.956-27.807a13.744,13.744,0,1,0,13.743,13.744,13.744,13.744,0,0,0-13.743-13.744m-8.957-27.887a14.066,14.066,0,1,0,14.065,14.066,14.066,14.066,0,0,0-14.065-14.066m-8.956-27.887a14.387,14.387,0,1,0,14.386,14.387,14.387,14.387,0,0,0-14.386-14.387M1147.7,48.845a14.627,14.627,0,1,0,14.628,14.628A14.628,14.628,0,0,0,1147.7,48.845m-8.957-27.887a14.949,14.949,0,1,0,14.95,14.949,14.949,14.949,0,0,0-14.95-14.949m-8.956-15.59a2.973,2.973,0,1,0,2.974,2.974,2.973,2.973,0,0,0-2.974-2.974m206.7,545.246a.081.081,0,1,0,.08.081.08.08,0,0,0-.08-.081m-8.957-31.262a3.777,3.777,0,1,0,3.778,3.777,3.777,3.777,0,0,0-3.778-3.777m-8.956-33.272a9.484,9.484,0,1,0,9.484,9.484,9.484,9.484,0,0,0-9.484-9.484m-8.957-28.369A10.288,10.288,0,1,0,1319.9,468a10.287,10.287,0,0,0-10.288-10.287m-8.956-27.887a10.609,10.609,0,1,0,10.609,10.609,10.609,10.609,0,0,0-10.609-10.609m-8.957-27.887a10.93,10.93,0,1,0,10.931,10.93,10.931,10.931,0,0,0-10.931-10.93m-8.957-27.887a11.252,11.252,0,1,0,11.253,11.252,11.252,11.252,0,0,0-11.253-11.252m-8.956-27.887a11.574,11.574,0,1,0,11.573,11.573,11.573,11.573,0,0,0-11.573-11.573m-8.957-27.887a11.9,11.9,0,1,0,11.9,11.895,11.895,11.895,0,0,0-11.9-11.895m-8.956-27.887a12.216,12.216,0,1,0,12.216,12.216,12.216,12.216,0,0,0-12.216-12.216m-8.957-27.887a12.538,12.538,0,1,0,12.538,12.538,12.538,12.538,0,0,0-12.538-12.538m-8.956-27.807a12.779,12.779,0,1,0,12.779,12.779,12.78,12.78,0,0,0-12.779-12.779M1229,206.808a13.1,13.1,0,1,0,13.1,13.1,13.1,13.1,0,0,0-13.1-13.1m-8.957-27.887a13.422,13.422,0,1,0,13.423,13.422,13.423,13.423,0,0,0-13.423-13.422m-8.956-27.806a13.663,13.663,0,1,0,13.663,13.663,13.663,13.663,0,0,0-13.663-13.663m-8.957-27.887a13.985,13.985,0,1,0,13.985,13.984,13.985,13.985,0,0,0-13.985-13.984m-8.956-27.807a14.226,14.226,0,1,0,14.225,14.226,14.226,14.226,0,0,0-14.225-14.226m-8.957-27.887a14.548,14.548,0,1,0,14.547,14.547,14.547,14.547,0,0,0-14.547-14.547m-8.957-27.887a14.869,14.869,0,1,0,14.869,14.869,14.869,14.869,0,0,0-14.869-14.869m-8.956-25.8a13.1,13.1,0,1,0,13.1,13.1,13.1,13.1,0,0,0-13.1-13.1M1346.132,485a1.607,1.607,0,1,0,1.608,1.607,1.606,1.606,0,0,0-1.608-1.607m-8.956-34.4a8.439,8.439,0,1,0,8.439,8.439,8.439,8.439,0,0,0-8.439-8.439m-8.957-29.977a10.85,10.85,0,1,0,10.85,10.85,10.85,10.85,0,0,0-10.85-10.85m-8.956-27.887a11.171,11.171,0,1,0,11.171,11.172,11.172,11.172,0,0,0-11.171-11.172m-8.957-27.887a11.493,11.493,0,1,0,11.493,11.493,11.493,11.493,0,0,0-11.493-11.493m-8.957-27.887a11.814,11.814,0,1,0,11.815,11.815,11.814,11.814,0,0,0-11.815-11.815m-8.956-27.807a12.056,12.056,0,1,0,12.056,12.056,12.056,12.056,0,0,0-12.056-12.056m-8.957-27.967a12.457,12.457,0,1,0,12.458,12.458,12.458,12.458,0,0,0-12.458-12.458m-8.956-27.806a12.7,12.7,0,1,0,12.7,12.7,12.7,12.7,0,0,0-12.7-12.7m-8.957-27.887a13.02,13.02,0,1,0,13.02,13.02,13.02,13.02,0,0,0-13.02-13.02m-8.957-27.887a13.342,13.342,0,1,0,13.342,13.341,13.341,13.341,0,0,0-13.342-13.341M1247.61,169.8a13.583,13.583,0,1,0,13.583,13.583A13.583,13.583,0,0,0,1247.61,169.8m-8.957-27.887a13.9,13.9,0,1,0,13.905,13.9,13.9,13.9,0,0,0-13.905-13.9M1229.7,114.11a14.146,14.146,0,1,0,14.145,14.146A14.146,14.146,0,0,0,1229.7,114.11m-8.957-27.887a14.467,14.467,0,1,0,14.467,14.467,14.467,14.467,0,0,0-14.467-14.467m-8.956-27.887a14.789,14.789,0,1,0,14.788,14.789,14.789,14.789,0,0,0-14.788-14.789m-8.957-27.806a15.03,15.03,0,1,0,15.03,15.029,15.03,15.03,0,0,0-15.03-15.029m-8.957-20.9a8.359,8.359,0,1,0,8.359,8.359,8.359,8.359,0,0,0-8.359-8.359m170.871,440.048a.4.4,0,1,0,.4.4.4.4,0,0,0-.4-.4m-8.956-33.513a6.349,6.349,0,1,0,6.349,6.35,6.35,6.35,0,0,0-6.349-6.35m-8.957-32.548a11.332,11.332,0,1,0,11.332,11.332,11.331,11.331,0,0,0-11.332-11.332m-8.957-27.968a11.734,11.734,0,1,0,11.735,11.735,11.735,11.735,0,0,0-11.735-11.735m-8.956-27.806a11.976,11.976,0,1,0,11.975,11.975,11.975,11.975,0,0,0-11.975-11.975m-8.957-27.968a12.378,12.378,0,1,0,12.378,12.378,12.377,12.377,0,0,0-12.378-12.378M1311,272.074a12.618,12.618,0,1,0,12.618,12.618A12.618,12.618,0,0,0,1311,272.074m-8.957-27.887a12.94,12.94,0,1,0,12.94,12.94,12.94,12.94,0,0,0-12.94-12.94m-8.957-27.887a13.261,13.261,0,1,0,13.262,13.261,13.261,13.261,0,0,0-13.262-13.261m-8.956-27.807a13.5,13.5,0,1,0,13.5,13.5,13.5,13.5,0,0,0-13.5-13.5m-8.957-27.887A13.824,13.824,0,1,0,1289,174.43a13.825,13.825,0,0,0-13.824-13.824m-8.956-27.806a14.065,14.065,0,1,0,14.065,14.065,14.065,14.065,0,0,0-14.065-14.065m-8.957-27.887a14.387,14.387,0,1,0,14.387,14.386,14.386,14.386,0,0,0-14.387-14.386m-8.956-27.887a14.708,14.708,0,1,0,14.708,14.708,14.708,14.708,0,0,0-14.708-14.708m-8.957-27.807A14.949,14.949,0,1,0,1254.3,64.168a14.949,14.949,0,0,0-14.949-14.949m-8.957-27.887A15.271,15.271,0,1,0,1245.663,36.6a15.271,15.271,0,0,0-15.271-15.271m-8.956-15.67a3.375,3.375,0,1,0,3.376,3.375,3.376,3.376,0,0,0-3.376-3.375m152.957,376.96a3.375,3.375,0,1,0,3.376,3.376,3.375,3.375,0,0,0-3.376-3.376m-8.956-35.04a10.85,10.85,0,1,0,10.85,10.85,10.85,10.85,0,0,0-10.85-10.85m-8.957-28.932a12.217,12.217,0,1,0,12.217,12.217,12.216,12.216,0,0,0-12.217-12.217m-8.956-27.887a12.538,12.538,0,1,0,12.538,12.538,12.538,12.538,0,0,0-12.538-12.538m-8.957-27.887a12.859,12.859,0,1,0,12.86,12.86,12.86,12.86,0,0,0-12.86-12.86m-8.956-27.887a13.181,13.181,0,1,0,13.181,13.181,13.181,13.181,0,0,0-13.181-13.181m-8.957-27.807a13.422,13.422,0,1,0,13.422,13.423,13.422,13.422,0,0,0-13.422-13.423M1311.7,179.3a13.743,13.743,0,1,0,13.744,13.743A13.743,13.743,0,0,0,1311.7,179.3m-8.956-27.807a13.984,13.984,0,1,0,13.985,13.985,13.985,13.985,0,0,0-13.985-13.985m-8.957-27.887a14.306,14.306,0,1,0,14.306,14.306,14.306,14.306,0,0,0-14.306-14.306m-8.956-27.887a14.628,14.628,0,1,0,14.627,14.628,14.628,14.628,0,0,0-14.627-14.628m-8.957-27.807a14.869,14.869,0,1,0,14.869,14.869,14.869,14.869,0,0,0-14.869-14.869m-8.956-27.887a15.191,15.191,0,1,0,15.19,15.191,15.191,15.191,0,0,0-15.19-15.191M1257.958,13.9A13.743,13.743,0,1,0,1271.7,27.646,13.744,13.744,0,0,0,1257.958,13.9M1249,0a.081.081,0,1,0,.081.081A.08.08,0,0,0,1249,0m144,348.19a1.285,1.285,0,1,0,1.286,1.285A1.285,1.285,0,0,0,1393,348.19m-8.956-35.523a9.243,9.243,0,1,0,9.243,9.243,9.243,9.243,0,0,0-9.243-9.243m-8.957-31.1a12.779,12.779,0,1,0,12.779,12.779,12.779,12.779,0,0,0-12.779-12.779m-8.956-27.887a13.1,13.1,0,1,0,13.1,13.1,13.1,13.1,0,0,0-13.1-13.1m-8.957-27.806a13.341,13.341,0,1,0,13.342,13.341,13.342,13.342,0,0,0-13.342-13.341m-8.957-27.887a13.663,13.663,0,1,0,13.664,13.663,13.663,13.663,0,0,0-13.664-13.663m-8.956-27.887a13.984,13.984,0,1,0,13.985,13.985,13.985,13.985,0,0,0-13.985-13.985m-8.957-27.807a14.226,14.226,0,1,0,14.226,14.226,14.225,14.225,0,0,0-14.226-14.226M1321.35,114.4a14.547,14.547,0,1,0,14.547,14.548A14.548,14.548,0,0,0,1321.35,114.4M1312.393,86.6a14.789,14.789,0,1,0,14.789,14.788A14.788,14.788,0,0,0,1312.393,86.6m-8.956-27.887a15.11,15.11,0,1,0,15.109,15.11,15.11,15.11,0,0,0-15.109-15.11m-8.957-27.887a15.432,15.432,0,1,0,15.431,15.431,15.431,15.431,0,0,0-15.431-15.431m-8.957-21.056a8.922,8.922,0,1,0,8.922,8.922,8.922,8.922,0,0,0-8.922-8.922m126.088,302.944a.242.242,0,1,0,.241.241.241.241,0,0,0-.241-.241m-8.956-33.272a5.947,5.947,0,1,0,5.947,5.948,5.948,5.948,0,0,0-5.947-5.948m-8.957-34.557a12.939,12.939,0,1,0,12.94,12.939,12.94,12.94,0,0,0-12.94-12.939m-8.956-28.209a13.583,13.583,0,1,0,13.582,13.583,13.583,13.583,0,0,0-13.582-13.583m-8.957-27.887a13.9,13.9,0,1,0,13.9,13.9,13.9,13.9,0,0,0-13.9-13.9m-8.957-27.806a14.145,14.145,0,1,0,14.146,14.145,14.145,14.145,0,0,0-14.146-14.145m-8.956-27.888a14.467,14.467,0,1,0,14.467,14.468,14.468,14.468,0,0,0-14.467-14.468m-8.957-27.806A14.708,14.708,0,1,0,1363.623,120a14.708,14.708,0,0,0-14.708-14.708M1339.959,77.4a15.029,15.029,0,1,0,15.029,15.03,15.03,15.03,0,0,0-15.029-15.03M1331,49.593a15.271,15.271,0,1,0,15.271,15.271A15.271,15.271,0,0,0,1331,49.593m-8.956-27.887A15.592,15.592,0,1,0,1337.638,37.3a15.593,15.593,0,0,0-15.592-15.593m-8.957-15.831a3.858,3.858,0,1,0,3.858,3.858,3.858,3.858,0,0,0-3.858-3.858m108.175,239.856a3.134,3.134,0,1,0,3.134,3.135,3.135,3.135,0,0,0-3.134-3.135m-8.957-36.245a11.815,11.815,0,1,0,11.815,11.814,11.815,11.815,0,0,0-11.815-11.814m-8.957-29.816a14.065,14.065,0,1,0,14.066,14.065,14.065,14.065,0,0,0-14.066-14.065m-8.956-27.887a14.386,14.386,0,1,0,14.386,14.386,14.386,14.386,0,0,0-14.386-14.386m-8.957-27.807a14.628,14.628,0,1,0,14.628,14.628,14.628,14.628,0,0,0-14.628-14.628m-8.956-27.887a14.95,14.95,0,1,0,14.949,14.949,14.948,14.948,0,0,0-14.949-14.949M1367.524,68.2A15.271,15.271,0,1,0,1382.8,83.473,15.27,15.27,0,0,0,1367.524,68.2M1358.567,40.4a15.511,15.511,0,1,0,15.512,15.511A15.512,15.512,0,0,0,1358.567,40.4m-8.956-26.36a14.306,14.306,0,1,0,14.306,14.306,14.306,14.306,0,0,0-14.306-14.306M1340.654.616a.161.161,0,1,0,.161.16.16.16,0,0,0-.161-.16M1439.873,211.3a1.045,1.045,0,1,0,1.044,1.045,1.045,1.045,0,0,0-1.044-1.045m-8.957-35.6a9.082,9.082,0,1,0,9.082,9.082,9.082,9.082,0,0,0-9.082-9.082m-8.957-32.95a14.467,14.467,0,1,0,14.467,14.467,14.467,14.467,0,0,0-14.467-14.467M1413,114.779a14.869,14.869,0,1,0,14.869,14.868A14.869,14.869,0,0,0,1413,114.779m-8.957-27.887a15.19,15.19,0,1,0,15.19,15.19,15.19,15.19,0,0,0-15.19-15.19m-8.956-27.807a15.431,15.431,0,1,0,15.431,15.431,15.432,15.432,0,0,0-15.431-15.431m-8.957-27.807a15.673,15.673,0,1,0,15.673,15.673,15.672,15.672,0,0,0-15.673-15.673M1377.176,9.9a9.484,9.484,0,1,0,9.484,9.484,9.484,9.484,0,0,0-9.484-9.484m81.3,165.76a.161.161,0,1,0,.161.161.161.161,0,0,0-.161-.161m-8.956-33.111a5.706,5.706,0,1,0,5.706,5.706,5.707,5.707,0,0,0-5.706-5.706m-8.957-36.085a14.226,14.226,0,1,0,14.226,14.226,14.226,14.226,0,0,0-14.226-14.226m-8.956-28.691a15.351,15.351,0,1,0,15.351,15.351,15.351,15.351,0,0,0-15.351-15.351m-8.957-27.887a15.673,15.673,0,1,0,15.673,15.673,15.672,15.672,0,0,0-15.673-15.673M1413.7,22.161a15.833,15.833,0,1,0,15.834,15.833A15.833,15.833,0,0,0,1413.7,22.161m-8.956-16.072a4.34,4.34,0,1,0,4.34,4.34,4.34,4.34,0,0,0-4.34-4.34m63.392,103.073a2.572,2.572,0,1,0,2.572,2.572,2.572,2.572,0,0,0-2.572-2.572m-8.957-37.21a12.216,12.216,0,1,0,12.217,12.217,12.216,12.216,0,0,0-12.217-12.217m-8.956-31.182A15.833,15.833,0,1,0,1466.054,56.6a15.834,15.834,0,0,0-15.833-15.833m-8.957-26.682a14.949,14.949,0,1,0,14.949,14.95,14.949,14.949,0,0,0-14.949-14.95m-8.957-12.937a.322.322,0,1,0,.322.321.321.321,0,0,0-.322-.321m54.436,73.418a.643.643,0,1,0,.643.643.643.643,0,0,0-.643-.643m-8.957-35.924a9,9,0,1,0,9,9,9,9,0,0,0-9-9m-8.957-28.45a9.886,9.886,0,1,0,9.886,9.886,9.886,9.886,0,0,0-9.886-9.886m27.566.367a.563.563,0,1,0,.563.562.563.563,0,0,0-.563-.562" transform="translate(-30)"/>
    </g>
  </g>
  <g id="Group_7455" data-name="Group 7455" transform="translate(1868.662)">
    <path id="Path_11814" data-name="Path 11814" d="M1018.775,0,644.5,1151.614h417.742L1436.517,0Z" transform="translate(-644.5)" fill="url(#linear-gradient-2)"/>
  </g>
  <g id="Group_9033" data-name="Group 9033" transform="translate(1867.477)">
    <g id="Group_9032" data-name="Group 9032" clip-path="url(#clip-path-2)">
      <rect id="Rectangle_5370" data-name="Rectangle 5370" width="63.966" height="1247.43" transform="matrix(0.588, -0.809, 0.809, 0.588, -570.137, 1137.706)"/>
      <rect id="Rectangle_5371" data-name="Rectangle 5371" width="63.967" height="1356.492" transform="matrix(0.588, -0.809, 0.809, 0.588, -570.137, 848.887)"/>
    </g>
  </g>
  <path id="Union_208" data-name="Union 208" d="M197.445,1142.059,0,998.607l20.785-63.966,285.488,207.418ZM75.922,764.947,96.706,700.98,379.93,906.753v79.07ZM151.84,531.286l20.785-63.967,207.3,150.617V697Zm75.923-233.659,20.783-63.967L379.93,329.116v79.068ZM303.682,63.969,324.465,0l55.463,40.3v79.068Z" transform="translate(1914.087 9.555)" fill="#190a28"/>
  <g id="Group_9035" data-name="Group 9035" transform="translate(1867.477)">
    <g id="Group_9034" data-name="Group 9034" clip-path="url(#clip-path-2)">
      <rect id="Rectangle_5372" data-name="Rectangle 5372" width="63.967" height="2010.859" transform="translate(-570.138 -884.028) rotate(-54)"/>
    </g>
  </g>
  <path id="Union_207" data-name="Union 207" d="M699.326,1151.4,0,643.312V564.245L808.156,1151.4Zm-397.527,0L0,932.132V853.065L410.628,1151.4ZM0,354.495V275.427L920.268,944.04l-20.782,63.967ZM0,65.675V0H18.437L996.188,710.38,975.4,774.347ZM307.135,0H415.96l656.149,476.719-20.785,63.965ZM704.659,0H813.487l334.541,243.06-20.784,63.967Zm397.526,0h108.826l12.939,9.4-20.786,63.967Z" transform="translate(1015.969 0.211)" fill="url(#linear-gradient-3)"/>
  <rect id="Rectangle_5373" data-name="Rectangle 5373" width="2920" height="199" transform="translate(0 953)" fill="url(#linear-gradient-4)"/>
  <rect id="Rectangle_5729" data-name="Rectangle 5729" width="1152" height="287" transform="translate(287) rotate(90)" fill="url(#linear-gradient-4)"/>
  <rect id="Rectangle_5730" data-name="Rectangle 5730" width="1152" height="287" transform="translate(2920) rotate(90)" fill="url(#linear-gradient-6)"/>
</svg>
